<?xml version="1.0" encoding="utf-8" standalone="no"?>
<!DOCTYPE svg PUBLIC "-//W3C//DTD SVG 1.1//EN"
  "http://www.w3.org/Graphics/SVG/1.1/DTD/svg11.dtd">
<svg xmlns:xlink="http://www.w3.org/1999/xlink" width="720pt" height="396pt" viewBox="0 0 720 396" xmlns="http://www.w3.org/2000/svg" version="1.1">
 <metadata>
  <rdf:RDF xmlns:dc="http://purl.org/dc/elements/1.1/" xmlns:cc="http://creativecommons.org/ns#" xmlns:rdf="http://www.w3.org/1999/02/22-rdf-syntax-ns#">
   <cc:Work>
    <dc:type rdf:resource="http://purl.org/dc/dcmitype/StillImage"/>
    <dc:date>2026-05-17T17:37:34.992100</dc:date>
    <dc:format>image/svg+xml</dc:format>
    <dc:creator>
     <cc:Agent>
      <dc:title>Matplotlib v3.10.9, https://matplotlib.org/</dc:title>
     </cc:Agent>
    </dc:creator>
   </cc:Work>
  </rdf:RDF>
 </metadata>
 <defs>
  <style type="text/css">*{stroke-linejoin: round; stroke-linecap: butt}</style>
 </defs>
 <g id="figure_1">
  <g id="patch_1">
   <path d="M 0 396 
L 720 396 
L 720 0 
L 0 0 
z
" style="fill: #ffffff"/>
  </g>
  <g id="axes_1">
   <g id="patch_2">
    <path d="M 55.344554 356.456 
L 709.2 356.456 
L 709.2 39.912 
L 55.344554 39.912 
z
" style="fill: #ffffff"/>
   </g>
   <g id="matplotlib.axis_1">
    <g id="xtick_1">
     <g id="line2d_1">
      <defs>
       <path id="mec43879841" d="M 0 0 
L 0 3.5 
" style="stroke: #000000; stroke-width: 0.8"/>
      </defs>
      <g>
       <use xlink:href="#mec43879841" x="120.030788" y="356.456" style="stroke: #000000; stroke-width: 0.8"/>
      </g>
     </g>
     <g id="text_1">
      <!-- s00 -->
      <g transform="translate(111.0636 371.054438) scale(0.1 -0.1)">
       <defs>
        <path id="DejaVuSans-73" d="M 2834 3397 
L 2834 2853 
Q 2591 2978 2328 3040 
Q 2066 3103 1784 3103 
Q 1356 3103 1142 2972 
Q 928 2841 928 2578 
Q 928 2378 1081 2264 
Q 1234 2150 1697 2047 
L 1894 2003 
Q 2506 1872 2764 1633 
Q 3022 1394 3022 966 
Q 3022 478 2636 193 
Q 2250 -91 1575 -91 
Q 1294 -91 989 -36 
Q 684 19 347 128 
L 347 722 
Q 666 556 975 473 
Q 1284 391 1588 391 
Q 1994 391 2212 530 
Q 2431 669 2431 922 
Q 2431 1156 2273 1281 
Q 2116 1406 1581 1522 
L 1381 1569 
Q 847 1681 609 1914 
Q 372 2147 372 2553 
Q 372 3047 722 3315 
Q 1072 3584 1716 3584 
Q 2034 3584 2315 3537 
Q 2597 3491 2834 3397 
z
" transform="scale(0.015625)"/>
        <path id="DejaVuSans-30" d="M 2034 4250 
Q 1547 4250 1301 3770 
Q 1056 3291 1056 2328 
Q 1056 1369 1301 889 
Q 1547 409 2034 409 
Q 2525 409 2770 889 
Q 3016 1369 3016 2328 
Q 3016 3291 2770 3770 
Q 2525 4250 2034 4250 
z
M 2034 4750 
Q 2819 4750 3233 4129 
Q 3647 3509 3647 2328 
Q 3647 1150 3233 529 
Q 2819 -91 2034 -91 
Q 1250 -91 836 529 
Q 422 1150 422 2328 
Q 422 3509 836 4129 
Q 1250 4750 2034 4750 
z
" transform="scale(0.015625)"/>
       </defs>
       <use xlink:href="#DejaVuSans-73"/>
       <use xlink:href="#DejaVuSans-30" transform="translate(52.099609 0)"/>
       <use xlink:href="#DejaVuSans-30" transform="translate(115.722656 0)"/>
      </g>
      <!-- naive -->
      <g transform="translate(106.372975 382.25225) scale(0.1 -0.1)">
       <defs>
        <path id="DejaVuSans-6e" d="M 3513 2113 
L 3513 0 
L 2938 0 
L 2938 2094 
Q 2938 2591 2744 2837 
Q 2550 3084 2163 3084 
Q 1697 3084 1428 2787 
Q 1159 2491 1159 1978 
L 1159 0 
L 581 0 
L 581 3500 
L 1159 3500 
L 1159 2956 
Q 1366 3272 1645 3428 
Q 1925 3584 2291 3584 
Q 2894 3584 3203 3211 
Q 3513 2838 3513 2113 
z
" transform="scale(0.015625)"/>
        <path id="DejaVuSans-61" d="M 2194 1759 
Q 1497 1759 1228 1600 
Q 959 1441 959 1056 
Q 959 750 1161 570 
Q 1363 391 1709 391 
Q 2188 391 2477 730 
Q 2766 1069 2766 1631 
L 2766 1759 
L 2194 1759 
z
M 3341 1997 
L 3341 0 
L 2766 0 
L 2766 531 
Q 2569 213 2275 61 
Q 1981 -91 1556 -91 
Q 1019 -91 701 211 
Q 384 513 384 1019 
Q 384 1609 779 1909 
Q 1175 2209 1959 2209 
L 2766 2209 
L 2766 2266 
Q 2766 2663 2505 2880 
Q 2244 3097 1772 3097 
Q 1472 3097 1187 3025 
Q 903 2953 641 2809 
L 641 3341 
Q 956 3463 1253 3523 
Q 1550 3584 1831 3584 
Q 2591 3584 2966 3190 
Q 3341 2797 3341 1997 
z
" transform="scale(0.015625)"/>
        <path id="DejaVuSans-69" d="M 603 3500 
L 1178 3500 
L 1178 0 
L 603 0 
L 603 3500 
z
M 603 4863 
L 1178 4863 
L 1178 4134 
L 603 4134 
L 603 4863 
z
" transform="scale(0.015625)"/>
        <path id="DejaVuSans-76" d="M 191 3500 
L 800 3500 
L 1894 563 
L 2988 3500 
L 3597 3500 
L 2284 0 
L 1503 0 
L 191 3500 
z
" transform="scale(0.015625)"/>
        <path id="DejaVuSans-65" d="M 3597 1894 
L 3597 1613 
L 953 1613 
Q 991 1019 1311 708 
Q 1631 397 2203 397 
Q 2534 397 2845 478 
Q 3156 559 3463 722 
L 3463 178 
Q 3153 47 2828 -22 
Q 2503 -91 2169 -91 
Q 1331 -91 842 396 
Q 353 884 353 1716 
Q 353 2575 817 3079 
Q 1281 3584 2069 3584 
Q 2775 3584 3186 3129 
Q 3597 2675 3597 1894 
z
M 3022 2063 
Q 3016 2534 2758 2815 
Q 2500 3097 2075 3097 
Q 1594 3097 1305 2825 
Q 1016 2553 972 2059 
L 3022 2063 
z
" transform="scale(0.015625)"/>
       </defs>
       <use xlink:href="#DejaVuSans-6e"/>
       <use xlink:href="#DejaVuSans-61" transform="translate(63.378906 0)"/>
       <use xlink:href="#DejaVuSans-69" transform="translate(124.658203 0)"/>
       <use xlink:href="#DejaVuSans-76" transform="translate(152.441406 0)"/>
       <use xlink:href="#DejaVuSans-65" transform="translate(211.621094 0)"/>
      </g>
     </g>
    </g>
    <g id="xtick_2">
     <g id="line2d_2">
      <g>
       <use xlink:href="#mec43879841" x="207.444618" y="356.456" style="stroke: #000000; stroke-width: 0.8"/>
      </g>
     </g>
     <g id="text_2">
      <!-- s01 -->
      <g transform="translate(198.47743 371.054438) scale(0.1 -0.1)">
       <defs>
        <path id="DejaVuSans-31" d="M 794 531 
L 1825 531 
L 1825 4091 
L 703 3866 
L 703 4441 
L 1819 4666 
L 2450 4666 
L 2450 531 
L 3481 531 
L 3481 0 
L 794 0 
L 794 531 
z
" transform="scale(0.015625)"/>
       </defs>
       <use xlink:href="#DejaVuSans-73"/>
       <use xlink:href="#DejaVuSans-30" transform="translate(52.099609 0)"/>
       <use xlink:href="#DejaVuSans-31" transform="translate(115.722656 0)"/>
      </g>
      <!-- numpy -->
      <g transform="translate(190.103211 382.25225) scale(0.1 -0.1)">
       <defs>
        <path id="DejaVuSans-75" d="M 544 1381 
L 544 3500 
L 1119 3500 
L 1119 1403 
Q 1119 906 1312 657 
Q 1506 409 1894 409 
Q 2359 409 2629 706 
Q 2900 1003 2900 1516 
L 2900 3500 
L 3475 3500 
L 3475 0 
L 2900 0 
L 2900 538 
Q 2691 219 2414 64 
Q 2138 -91 1772 -91 
Q 1169 -91 856 284 
Q 544 659 544 1381 
z
M 1991 3584 
L 1991 3584 
z
" transform="scale(0.015625)"/>
        <path id="DejaVuSans-6d" d="M 3328 2828 
Q 3544 3216 3844 3400 
Q 4144 3584 4550 3584 
Q 5097 3584 5394 3201 
Q 5691 2819 5691 2113 
L 5691 0 
L 5113 0 
L 5113 2094 
Q 5113 2597 4934 2840 
Q 4756 3084 4391 3084 
Q 3944 3084 3684 2787 
Q 3425 2491 3425 1978 
L 3425 0 
L 2847 0 
L 2847 2094 
Q 2847 2600 2669 2842 
Q 2491 3084 2119 3084 
Q 1678 3084 1418 2786 
Q 1159 2488 1159 1978 
L 1159 0 
L 581 0 
L 581 3500 
L 1159 3500 
L 1159 2956 
Q 1356 3278 1631 3431 
Q 1906 3584 2284 3584 
Q 2666 3584 2933 3390 
Q 3200 3197 3328 2828 
z
" transform="scale(0.015625)"/>
        <path id="DejaVuSans-70" d="M 1159 525 
L 1159 -1331 
L 581 -1331 
L 581 3500 
L 1159 3500 
L 1159 2969 
Q 1341 3281 1617 3432 
Q 1894 3584 2278 3584 
Q 2916 3584 3314 3078 
Q 3713 2572 3713 1747 
Q 3713 922 3314 415 
Q 2916 -91 2278 -91 
Q 1894 -91 1617 61 
Q 1341 213 1159 525 
z
M 3116 1747 
Q 3116 2381 2855 2742 
Q 2594 3103 2138 3103 
Q 1681 3103 1420 2742 
Q 1159 2381 1159 1747 
Q 1159 1113 1420 752 
Q 1681 391 2138 391 
Q 2594 391 2855 752 
Q 3116 1113 3116 1747 
z
" transform="scale(0.015625)"/>
        <path id="DejaVuSans-79" d="M 2059 -325 
Q 1816 -950 1584 -1140 
Q 1353 -1331 966 -1331 
L 506 -1331 
L 506 -850 
L 844 -850 
Q 1081 -850 1212 -737 
Q 1344 -625 1503 -206 
L 1606 56 
L 191 3500 
L 800 3500 
L 1894 763 
L 2988 3500 
L 3597 3500 
L 2059 -325 
z
" transform="scale(0.015625)"/>
       </defs>
       <use xlink:href="#DejaVuSans-6e"/>
       <use xlink:href="#DejaVuSans-75" transform="translate(63.378906 0)"/>
       <use xlink:href="#DejaVuSans-6d" transform="translate(126.757812 0)"/>
       <use xlink:href="#DejaVuSans-70" transform="translate(224.169922 0)"/>
       <use xlink:href="#DejaVuSans-79" transform="translate(287.646484 0)"/>
      </g>
     </g>
    </g>
    <g id="xtick_3">
     <g id="line2d_3">
      <g>
       <use xlink:href="#mec43879841" x="294.858447" y="356.456" style="stroke: #000000; stroke-width: 0.8"/>
      </g>
     </g>
     <g id="text_3">
      <!-- s02 -->
      <g transform="translate(285.89126 371.054438) scale(0.1 -0.1)">
       <defs>
        <path id="DejaVuSans-32" d="M 1228 531 
L 3431 531 
L 3431 0 
L 469 0 
L 469 531 
Q 828 903 1448 1529 
Q 2069 2156 2228 2338 
Q 2531 2678 2651 2914 
Q 2772 3150 2772 3378 
Q 2772 3750 2511 3984 
Q 2250 4219 1831 4219 
Q 1534 4219 1204 4116 
Q 875 4013 500 3803 
L 500 4441 
Q 881 4594 1212 4672 
Q 1544 4750 1819 4750 
Q 2544 4750 2975 4387 
Q 3406 4025 3406 3419 
Q 3406 3131 3298 2873 
Q 3191 2616 2906 2266 
Q 2828 2175 2409 1742 
Q 1991 1309 1228 531 
z
" transform="scale(0.015625)"/>
       </defs>
       <use xlink:href="#DejaVuSans-73"/>
       <use xlink:href="#DejaVuSans-30" transform="translate(52.099609 0)"/>
       <use xlink:href="#DejaVuSans-32" transform="translate(115.722656 0)"/>
      </g>
      <!-- numba -->
      <g transform="translate(277.412354 382.25225) scale(0.1 -0.1)">
       <defs>
        <path id="DejaVuSans-62" d="M 3116 1747 
Q 3116 2381 2855 2742 
Q 2594 3103 2138 3103 
Q 1681 3103 1420 2742 
Q 1159 2381 1159 1747 
Q 1159 1113 1420 752 
Q 1681 391 2138 391 
Q 2594 391 2855 752 
Q 3116 1113 3116 1747 
z
M 1159 2969 
Q 1341 3281 1617 3432 
Q 1894 3584 2278 3584 
Q 2916 3584 3314 3078 
Q 3713 2572 3713 1747 
Q 3713 922 3314 415 
Q 2916 -91 2278 -91 
Q 1894 -91 1617 61 
Q 1341 213 1159 525 
L 1159 0 
L 581 0 
L 581 4863 
L 1159 4863 
L 1159 2969 
z
" transform="scale(0.015625)"/>
       </defs>
       <use xlink:href="#DejaVuSans-6e"/>
       <use xlink:href="#DejaVuSans-75" transform="translate(63.378906 0)"/>
       <use xlink:href="#DejaVuSans-6d" transform="translate(126.757812 0)"/>
       <use xlink:href="#DejaVuSans-62" transform="translate(224.169922 0)"/>
       <use xlink:href="#DejaVuSans-61" transform="translate(287.646484 0)"/>
      </g>
     </g>
    </g>
    <g id="xtick_4">
     <g id="line2d_4">
      <g>
       <use xlink:href="#mec43879841" x="382.272277" y="356.456" style="stroke: #000000; stroke-width: 0.8"/>
      </g>
     </g>
     <g id="text_4">
      <!-- s03 -->
      <g transform="translate(373.305089 371.054438) scale(0.1 -0.1)">
       <defs>
        <path id="DejaVuSans-33" d="M 2597 2516 
Q 3050 2419 3304 2112 
Q 3559 1806 3559 1356 
Q 3559 666 3084 287 
Q 2609 -91 1734 -91 
Q 1441 -91 1130 -33 
Q 819 25 488 141 
L 488 750 
Q 750 597 1062 519 
Q 1375 441 1716 441 
Q 2309 441 2620 675 
Q 2931 909 2931 1356 
Q 2931 1769 2642 2001 
Q 2353 2234 1838 2234 
L 1294 2234 
L 1294 2753 
L 1863 2753 
Q 2328 2753 2575 2939 
Q 2822 3125 2822 3475 
Q 2822 3834 2567 4026 
Q 2313 4219 1838 4219 
Q 1578 4219 1281 4162 
Q 984 4106 628 3988 
L 628 4550 
Q 988 4650 1302 4700 
Q 1616 4750 1894 4750 
Q 2613 4750 3031 4423 
Q 3450 4097 3450 3541 
Q 3450 3153 3228 2886 
Q 3006 2619 2597 2516 
z
" transform="scale(0.015625)"/>
       </defs>
       <use xlink:href="#DejaVuSans-73"/>
       <use xlink:href="#DejaVuSans-30" transform="translate(52.099609 0)"/>
       <use xlink:href="#DejaVuSans-33" transform="translate(115.722656 0)"/>
      </g>
      <!-- numba opt -->
      <g transform="translate(355.043371 382.25225) scale(0.1 -0.1)">
       <defs>
        <path id="DejaVuSans-20" transform="scale(0.015625)"/>
        <path id="DejaVuSans-6f" d="M 1959 3097 
Q 1497 3097 1228 2736 
Q 959 2375 959 1747 
Q 959 1119 1226 758 
Q 1494 397 1959 397 
Q 2419 397 2687 759 
Q 2956 1122 2956 1747 
Q 2956 2369 2687 2733 
Q 2419 3097 1959 3097 
z
M 1959 3584 
Q 2709 3584 3137 3096 
Q 3566 2609 3566 1747 
Q 3566 888 3137 398 
Q 2709 -91 1959 -91 
Q 1206 -91 779 398 
Q 353 888 353 1747 
Q 353 2609 779 3096 
Q 1206 3584 1959 3584 
z
" transform="scale(0.015625)"/>
        <path id="DejaVuSans-74" d="M 1172 4494 
L 1172 3500 
L 2356 3500 
L 2356 3053 
L 1172 3053 
L 1172 1153 
Q 1172 725 1289 603 
Q 1406 481 1766 481 
L 2356 481 
L 2356 0 
L 1766 0 
Q 1100 0 847 248 
Q 594 497 594 1153 
L 594 3053 
L 172 3053 
L 172 3500 
L 594 3500 
L 594 4494 
L 1172 4494 
z
" transform="scale(0.015625)"/>
       </defs>
       <use xlink:href="#DejaVuSans-6e"/>
       <use xlink:href="#DejaVuSans-75" transform="translate(63.378906 0)"/>
       <use xlink:href="#DejaVuSans-6d" transform="translate(126.757812 0)"/>
       <use xlink:href="#DejaVuSans-62" transform="translate(224.169922 0)"/>
       <use xlink:href="#DejaVuSans-61" transform="translate(287.646484 0)"/>
       <use xlink:href="#DejaVuSans-20" transform="translate(348.925781 0)"/>
       <use xlink:href="#DejaVuSans-6f" transform="translate(380.712891 0)"/>
       <use xlink:href="#DejaVuSans-70" transform="translate(441.894531 0)"/>
       <use xlink:href="#DejaVuSans-74" transform="translate(505.371094 0)"/>
      </g>
     </g>
    </g>
    <g id="xtick_5">
     <g id="line2d_5">
      <g>
       <use xlink:href="#mec43879841" x="469.686107" y="356.456" style="stroke: #000000; stroke-width: 0.8"/>
      </g>
     </g>
     <g id="text_5">
      <!-- s04 -->
      <g transform="translate(460.718919 371.054438) scale(0.1 -0.1)">
       <defs>
        <path id="DejaVuSans-34" d="M 2419 4116 
L 825 1625 
L 2419 1625 
L 2419 4116 
z
M 2253 4666 
L 3047 4666 
L 3047 1625 
L 3713 1625 
L 3713 1100 
L 3047 1100 
L 3047 0 
L 2419 0 
L 2419 1100 
L 313 1100 
L 313 1709 
L 2253 4666 
z
" transform="scale(0.015625)"/>
       </defs>
       <use xlink:href="#DejaVuSans-73"/>
       <use xlink:href="#DejaVuSans-30" transform="translate(52.099609 0)"/>
       <use xlink:href="#DejaVuSans-34" transform="translate(115.722656 0)"/>
      </g>
      <!-- dask local -->
      <g transform="translate(444.707982 382.25225) scale(0.1 -0.1)">
       <defs>
        <path id="DejaVuSans-64" d="M 2906 2969 
L 2906 4863 
L 3481 4863 
L 3481 0 
L 2906 0 
L 2906 525 
Q 2725 213 2448 61 
Q 2172 -91 1784 -91 
Q 1150 -91 751 415 
Q 353 922 353 1747 
Q 353 2572 751 3078 
Q 1150 3584 1784 3584 
Q 2172 3584 2448 3432 
Q 2725 3281 2906 2969 
z
M 947 1747 
Q 947 1113 1208 752 
Q 1469 391 1925 391 
Q 2381 391 2643 752 
Q 2906 1113 2906 1747 
Q 2906 2381 2643 2742 
Q 2381 3103 1925 3103 
Q 1469 3103 1208 2742 
Q 947 2381 947 1747 
z
" transform="scale(0.015625)"/>
        <path id="DejaVuSans-6b" d="M 581 4863 
L 1159 4863 
L 1159 1991 
L 2875 3500 
L 3609 3500 
L 1753 1863 
L 3688 0 
L 2938 0 
L 1159 1709 
L 1159 0 
L 581 0 
L 581 4863 
z
" transform="scale(0.015625)"/>
        <path id="DejaVuSans-6c" d="M 603 4863 
L 1178 4863 
L 1178 0 
L 603 0 
L 603 4863 
z
" transform="scale(0.015625)"/>
        <path id="DejaVuSans-63" d="M 3122 3366 
L 3122 2828 
Q 2878 2963 2633 3030 
Q 2388 3097 2138 3097 
Q 1578 3097 1268 2742 
Q 959 2388 959 1747 
Q 959 1106 1268 751 
Q 1578 397 2138 397 
Q 2388 397 2633 464 
Q 2878 531 3122 666 
L 3122 134 
Q 2881 22 2623 -34 
Q 2366 -91 2075 -91 
Q 1284 -91 818 406 
Q 353 903 353 1747 
Q 353 2603 823 3093 
Q 1294 3584 2113 3584 
Q 2378 3584 2631 3529 
Q 2884 3475 3122 3366 
z
" transform="scale(0.015625)"/>
       </defs>
       <use xlink:href="#DejaVuSans-64"/>
       <use xlink:href="#DejaVuSans-61" transform="translate(63.476562 0)"/>
       <use xlink:href="#DejaVuSans-73" transform="translate(124.755859 0)"/>
       <use xlink:href="#DejaVuSans-6b" transform="translate(176.855469 0)"/>
       <use xlink:href="#DejaVuSans-20" transform="translate(234.765625 0)"/>
       <use xlink:href="#DejaVuSans-6c" transform="translate(266.552734 0)"/>
       <use xlink:href="#DejaVuSans-6f" transform="translate(294.335938 0)"/>
       <use xlink:href="#DejaVuSans-63" transform="translate(355.517578 0)"/>
       <use xlink:href="#DejaVuSans-61" transform="translate(410.498047 0)"/>
       <use xlink:href="#DejaVuSans-6c" transform="translate(471.777344 0)"/>
      </g>
     </g>
    </g>
    <g id="xtick_6">
     <g id="line2d_6">
      <g>
       <use xlink:href="#mec43879841" x="557.099936" y="356.456" style="stroke: #000000; stroke-width: 0.8"/>
      </g>
     </g>
     <g id="text_6">
      <!-- s05 -->
      <g transform="translate(548.132749 371.054438) scale(0.1 -0.1)">
       <defs>
        <path id="DejaVuSans-35" d="M 691 4666 
L 3169 4666 
L 3169 4134 
L 1269 4134 
L 1269 2991 
Q 1406 3038 1543 3061 
Q 1681 3084 1819 3084 
Q 2600 3084 3056 2656 
Q 3513 2228 3513 1497 
Q 3513 744 3044 326 
Q 2575 -91 1722 -91 
Q 1428 -91 1123 -41 
Q 819 9 494 109 
L 494 744 
Q 775 591 1075 516 
Q 1375 441 1709 441 
Q 2250 441 2565 725 
Q 2881 1009 2881 1497 
Q 2881 1984 2565 2268 
Q 2250 2553 1709 2553 
Q 1456 2553 1204 2497 
Q 953 2441 691 2322 
L 691 4666 
z
" transform="scale(0.015625)"/>
       </defs>
       <use xlink:href="#DejaVuSans-73"/>
       <use xlink:href="#DejaVuSans-30" transform="translate(52.099609 0)"/>
       <use xlink:href="#DejaVuSans-35" transform="translate(115.722656 0)"/>
      </g>
      <!-- torch MPS -->
      <g transform="translate(532.12728 382.25225) scale(0.1 -0.1)">
       <defs>
        <path id="DejaVuSans-72" d="M 2631 2963 
Q 2534 3019 2420 3045 
Q 2306 3072 2169 3072 
Q 1681 3072 1420 2755 
Q 1159 2438 1159 1844 
L 1159 0 
L 581 0 
L 581 3500 
L 1159 3500 
L 1159 2956 
Q 1341 3275 1631 3429 
Q 1922 3584 2338 3584 
Q 2397 3584 2469 3576 
Q 2541 3569 2628 3553 
L 2631 2963 
z
" transform="scale(0.015625)"/>
        <path id="DejaVuSans-68" d="M 3513 2113 
L 3513 0 
L 2938 0 
L 2938 2094 
Q 2938 2591 2744 2837 
Q 2550 3084 2163 3084 
Q 1697 3084 1428 2787 
Q 1159 2491 1159 1978 
L 1159 0 
L 581 0 
L 581 4863 
L 1159 4863 
L 1159 2956 
Q 1366 3272 1645 3428 
Q 1925 3584 2291 3584 
Q 2894 3584 3203 3211 
Q 3513 2838 3513 2113 
z
" transform="scale(0.015625)"/>
        <path id="DejaVuSans-4d" d="M 628 4666 
L 1569 4666 
L 2759 1491 
L 3956 4666 
L 4897 4666 
L 4897 0 
L 4281 0 
L 4281 4097 
L 3078 897 
L 2444 897 
L 1241 4097 
L 1241 0 
L 628 0 
L 628 4666 
z
" transform="scale(0.015625)"/>
        <path id="DejaVuSans-50" d="M 1259 4147 
L 1259 2394 
L 2053 2394 
Q 2494 2394 2734 2622 
Q 2975 2850 2975 3272 
Q 2975 3691 2734 3919 
Q 2494 4147 2053 4147 
L 1259 4147 
z
M 628 4666 
L 2053 4666 
Q 2838 4666 3239 4311 
Q 3641 3956 3641 3272 
Q 3641 2581 3239 2228 
Q 2838 1875 2053 1875 
L 1259 1875 
L 1259 0 
L 628 0 
L 628 4666 
z
" transform="scale(0.015625)"/>
        <path id="DejaVuSans-53" d="M 3425 4513 
L 3425 3897 
Q 3066 4069 2747 4153 
Q 2428 4238 2131 4238 
Q 1616 4238 1336 4038 
Q 1056 3838 1056 3469 
Q 1056 3159 1242 3001 
Q 1428 2844 1947 2747 
L 2328 2669 
Q 3034 2534 3370 2195 
Q 3706 1856 3706 1288 
Q 3706 609 3251 259 
Q 2797 -91 1919 -91 
Q 1588 -91 1214 -16 
Q 841 59 441 206 
L 441 856 
Q 825 641 1194 531 
Q 1563 422 1919 422 
Q 2459 422 2753 634 
Q 3047 847 3047 1241 
Q 3047 1584 2836 1778 
Q 2625 1972 2144 2069 
L 1759 2144 
Q 1053 2284 737 2584 
Q 422 2884 422 3419 
Q 422 4038 858 4394 
Q 1294 4750 2059 4750 
Q 2388 4750 2728 4690 
Q 3069 4631 3425 4513 
z
" transform="scale(0.015625)"/>
       </defs>
       <use xlink:href="#DejaVuSans-74"/>
       <use xlink:href="#DejaVuSans-6f" transform="translate(39.208984 0)"/>
       <use xlink:href="#DejaVuSans-72" transform="translate(100.390625 0)"/>
       <use xlink:href="#DejaVuSans-63" transform="translate(139.253906 0)"/>
       <use xlink:href="#DejaVuSans-68" transform="translate(194.234375 0)"/>
       <use xlink:href="#DejaVuSans-20" transform="translate(257.613281 0)"/>
       <use xlink:href="#DejaVuSans-4d" transform="translate(289.400391 0)"/>
       <use xlink:href="#DejaVuSans-50" transform="translate(375.679688 0)"/>
       <use xlink:href="#DejaVuSans-53" transform="translate(435.982422 0)"/>
      </g>
     </g>
    </g>
    <g id="xtick_7">
     <g id="line2d_7">
      <g>
       <use xlink:href="#mec43879841" x="644.513766" y="356.456" style="stroke: #000000; stroke-width: 0.8"/>
      </g>
     </g>
     <g id="text_7">
      <!-- s06 -->
      <g transform="translate(635.546579 371.054438) scale(0.1 -0.1)">
       <defs>
        <path id="DejaVuSans-36" d="M 2113 2584 
Q 1688 2584 1439 2293 
Q 1191 2003 1191 1497 
Q 1191 994 1439 701 
Q 1688 409 2113 409 
Q 2538 409 2786 701 
Q 3034 994 3034 1497 
Q 3034 2003 2786 2293 
Q 2538 2584 2113 2584 
z
M 3366 4563 
L 3366 3988 
Q 3128 4100 2886 4159 
Q 2644 4219 2406 4219 
Q 1781 4219 1451 3797 
Q 1122 3375 1075 2522 
Q 1259 2794 1537 2939 
Q 1816 3084 2150 3084 
Q 2853 3084 3261 2657 
Q 3669 2231 3669 1497 
Q 3669 778 3244 343 
Q 2819 -91 2113 -91 
Q 1303 -91 875 529 
Q 447 1150 447 2328 
Q 447 3434 972 4092 
Q 1497 4750 2381 4750 
Q 2619 4750 2861 4703 
Q 3103 4656 3366 4563 
z
" transform="scale(0.015625)"/>
       </defs>
       <use xlink:href="#DejaVuSans-73"/>
       <use xlink:href="#DejaVuSans-30" transform="translate(52.099609 0)"/>
       <use xlink:href="#DejaVuSans-36" transform="translate(115.722656 0)"/>
      </g>
      <!-- shader -->
      <g transform="translate(627.370016 382.25225) scale(0.1 -0.1)">
       <use xlink:href="#DejaVuSans-73"/>
       <use xlink:href="#DejaVuSans-68" transform="translate(52.099609 0)"/>
       <use xlink:href="#DejaVuSans-61" transform="translate(115.478516 0)"/>
       <use xlink:href="#DejaVuSans-64" transform="translate(176.757812 0)"/>
       <use xlink:href="#DejaVuSans-65" transform="translate(240.234375 0)"/>
       <use xlink:href="#DejaVuSans-72" transform="translate(301.757812 0)"/>
      </g>
     </g>
    </g>
   </g>
   <g id="matplotlib.axis_2">
    <g id="ytick_1">
     <g id="line2d_8">
      <path d="M 55.344554 356.456 
L 709.2 356.456 
" clip-path="url(#p977fc26b35)" style="fill: none; stroke-dasharray: 0.8,1.32; stroke-dashoffset: 0; stroke: #b0b0b0; stroke-opacity: 0.4; stroke-width: 0.8"/>
     </g>
     <g id="line2d_9">
      <defs>
       <path id="mbe1e7c5f49" d="M 0 0 
L -3.5 0 
" style="stroke: #000000; stroke-width: 0.8"/>
      </defs>
      <g>
       <use xlink:href="#mbe1e7c5f49" x="55.344554" y="356.456" style="stroke: #000000; stroke-width: 0.8"/>
      </g>
     </g>
     <g id="text_8">
      <!-- $\mathdefault{10^{-4}}$ -->
      <g transform="translate(24.844554 360.255219) scale(0.1 -0.1)">
       <defs>
        <path id="DejaVuSans-2212" d="M 678 2272 
L 4684 2272 
L 4684 1741 
L 678 1741 
L 678 2272 
z
" transform="scale(0.015625)"/>
       </defs>
       <use xlink:href="#DejaVuSans-31" transform="translate(0 0.684375)"/>
       <use xlink:href="#DejaVuSans-30" transform="translate(63.623047 0.684375)"/>
       <use xlink:href="#DejaVuSans-2212" transform="translate(128.203125 38.965625) scale(0.7)"/>
       <use xlink:href="#DejaVuSans-34" transform="translate(186.855469 38.965625) scale(0.7)"/>
      </g>
     </g>
    </g>
    <g id="ytick_2">
     <g id="line2d_10">
      <path d="M 55.344554 324.8016 
L 709.2 324.8016 
" clip-path="url(#p977fc26b35)" style="fill: none; stroke-dasharray: 0.8,1.32; stroke-dashoffset: 0; stroke: #b0b0b0; stroke-opacity: 0.4; stroke-width: 0.8"/>
     </g>
     <g id="line2d_11">
      <g>
       <use xlink:href="#mbe1e7c5f49" x="55.344554" y="324.8016" style="stroke: #000000; stroke-width: 0.8"/>
      </g>
     </g>
     <g id="text_9">
      <!-- $\mathdefault{10^{-3}}$ -->
      <g transform="translate(24.844554 328.600819) scale(0.1 -0.1)">
       <use xlink:href="#DejaVuSans-31" transform="translate(0 0.765625)"/>
       <use xlink:href="#DejaVuSans-30" transform="translate(63.623047 0.765625)"/>
       <use xlink:href="#DejaVuSans-2212" transform="translate(128.203125 39.046875) scale(0.7)"/>
       <use xlink:href="#DejaVuSans-33" transform="translate(186.855469 39.046875) scale(0.7)"/>
      </g>
     </g>
    </g>
    <g id="ytick_3">
     <g id="line2d_12">
      <path d="M 55.344554 293.1472 
L 709.2 293.1472 
" clip-path="url(#p977fc26b35)" style="fill: none; stroke-dasharray: 0.8,1.32; stroke-dashoffset: 0; stroke: #b0b0b0; stroke-opacity: 0.4; stroke-width: 0.8"/>
     </g>
     <g id="line2d_13">
      <g>
       <use xlink:href="#mbe1e7c5f49" x="55.344554" y="293.1472" style="stroke: #000000; stroke-width: 0.8"/>
      </g>
     </g>
     <g id="text_10">
      <!-- $\mathdefault{10^{-2}}$ -->
      <g transform="translate(24.844554 296.946419) scale(0.1 -0.1)">
       <use xlink:href="#DejaVuSans-31" transform="translate(0 0.765625)"/>
       <use xlink:href="#DejaVuSans-30" transform="translate(63.623047 0.765625)"/>
       <use xlink:href="#DejaVuSans-2212" transform="translate(128.203125 39.046875) scale(0.7)"/>
       <use xlink:href="#DejaVuSans-32" transform="translate(186.855469 39.046875) scale(0.7)"/>
      </g>
     </g>
    </g>
    <g id="ytick_4">
     <g id="line2d_14">
      <path d="M 55.344554 261.4928 
L 709.2 261.4928 
" clip-path="url(#p977fc26b35)" style="fill: none; stroke-dasharray: 0.8,1.32; stroke-dashoffset: 0; stroke: #b0b0b0; stroke-opacity: 0.4; stroke-width: 0.8"/>
     </g>
     <g id="line2d_15">
      <g>
       <use xlink:href="#mbe1e7c5f49" x="55.344554" y="261.4928" style="stroke: #000000; stroke-width: 0.8"/>
      </g>
     </g>
     <g id="text_11">
      <!-- $\mathdefault{10^{-1}}$ -->
      <g transform="translate(24.844554 265.292019) scale(0.1 -0.1)">
       <use xlink:href="#DejaVuSans-31" transform="translate(0 0.684375)"/>
       <use xlink:href="#DejaVuSans-30" transform="translate(63.623047 0.684375)"/>
       <use xlink:href="#DejaVuSans-2212" transform="translate(128.203125 38.965625) scale(0.7)"/>
       <use xlink:href="#DejaVuSans-31" transform="translate(186.855469 38.965625) scale(0.7)"/>
      </g>
     </g>
    </g>
    <g id="ytick_5">
     <g id="line2d_16">
      <path d="M 55.344554 229.8384 
L 709.2 229.8384 
" clip-path="url(#p977fc26b35)" style="fill: none; stroke-dasharray: 0.8,1.32; stroke-dashoffset: 0; stroke: #b0b0b0; stroke-opacity: 0.4; stroke-width: 0.8"/>
     </g>
     <g id="line2d_17">
      <g>
       <use xlink:href="#mbe1e7c5f49" x="55.344554" y="229.8384" style="stroke: #000000; stroke-width: 0.8"/>
      </g>
     </g>
     <g id="text_12">
      <!-- $\mathdefault{10^{0}}$ -->
      <g transform="translate(30.744554 233.637619) scale(0.1 -0.1)">
       <use xlink:href="#DejaVuSans-31" transform="translate(0 0.765625)"/>
       <use xlink:href="#DejaVuSans-30" transform="translate(63.623047 0.765625)"/>
       <use xlink:href="#DejaVuSans-30" transform="translate(128.203125 39.046875) scale(0.7)"/>
      </g>
     </g>
    </g>
    <g id="ytick_6">
     <g id="line2d_18">
      <path d="M 55.344554 198.184 
L 709.2 198.184 
" clip-path="url(#p977fc26b35)" style="fill: none; stroke-dasharray: 0.8,1.32; stroke-dashoffset: 0; stroke: #b0b0b0; stroke-opacity: 0.4; stroke-width: 0.8"/>
     </g>
     <g id="line2d_19">
      <g>
       <use xlink:href="#mbe1e7c5f49" x="55.344554" y="198.184" style="stroke: #000000; stroke-width: 0.8"/>
      </g>
     </g>
     <g id="text_13">
      <!-- $\mathdefault{10^{1}}$ -->
      <g transform="translate(30.744554 201.983219) scale(0.1 -0.1)">
       <use xlink:href="#DejaVuSans-31" transform="translate(0 0.684375)"/>
       <use xlink:href="#DejaVuSans-30" transform="translate(63.623047 0.684375)"/>
       <use xlink:href="#DejaVuSans-31" transform="translate(128.203125 38.965625) scale(0.7)"/>
      </g>
     </g>
    </g>
    <g id="ytick_7">
     <g id="line2d_20">
      <path d="M 55.344554 166.5296 
L 709.2 166.5296 
" clip-path="url(#p977fc26b35)" style="fill: none; stroke-dasharray: 0.8,1.32; stroke-dashoffset: 0; stroke: #b0b0b0; stroke-opacity: 0.4; stroke-width: 0.8"/>
     </g>
     <g id="line2d_21">
      <g>
       <use xlink:href="#mbe1e7c5f49" x="55.344554" y="166.5296" style="stroke: #000000; stroke-width: 0.8"/>
      </g>
     </g>
     <g id="text_14">
      <!-- $\mathdefault{10^{2}}$ -->
      <g transform="translate(30.744554 170.328819) scale(0.1 -0.1)">
       <use xlink:href="#DejaVuSans-31" transform="translate(0 0.765625)"/>
       <use xlink:href="#DejaVuSans-30" transform="translate(63.623047 0.765625)"/>
       <use xlink:href="#DejaVuSans-32" transform="translate(128.203125 39.046875) scale(0.7)"/>
      </g>
     </g>
    </g>
    <g id="ytick_8">
     <g id="line2d_22">
      <path d="M 55.344554 134.8752 
L 709.2 134.8752 
" clip-path="url(#p977fc26b35)" style="fill: none; stroke-dasharray: 0.8,1.32; stroke-dashoffset: 0; stroke: #b0b0b0; stroke-opacity: 0.4; stroke-width: 0.8"/>
     </g>
     <g id="line2d_23">
      <g>
       <use xlink:href="#mbe1e7c5f49" x="55.344554" y="134.8752" style="stroke: #000000; stroke-width: 0.8"/>
      </g>
     </g>
     <g id="text_15">
      <!-- $\mathdefault{10^{3}}$ -->
      <g transform="translate(30.744554 138.674419) scale(0.1 -0.1)">
       <use xlink:href="#DejaVuSans-31" transform="translate(0 0.765625)"/>
       <use xlink:href="#DejaVuSans-30" transform="translate(63.623047 0.765625)"/>
       <use xlink:href="#DejaVuSans-33" transform="translate(128.203125 39.046875) scale(0.7)"/>
      </g>
     </g>
    </g>
    <g id="ytick_9">
     <g id="line2d_24">
      <path d="M 55.344554 103.2208 
L 709.2 103.2208 
" clip-path="url(#p977fc26b35)" style="fill: none; stroke-dasharray: 0.8,1.32; stroke-dashoffset: 0; stroke: #b0b0b0; stroke-opacity: 0.4; stroke-width: 0.8"/>
     </g>
     <g id="line2d_25">
      <g>
       <use xlink:href="#mbe1e7c5f49" x="55.344554" y="103.2208" style="stroke: #000000; stroke-width: 0.8"/>
      </g>
     </g>
     <g id="text_16">
      <!-- $\mathdefault{10^{4}}$ -->
      <g transform="translate(30.744554 107.020019) scale(0.1 -0.1)">
       <use xlink:href="#DejaVuSans-31" transform="translate(0 0.684375)"/>
       <use xlink:href="#DejaVuSans-30" transform="translate(63.623047 0.684375)"/>
       <use xlink:href="#DejaVuSans-34" transform="translate(128.203125 38.965625) scale(0.7)"/>
      </g>
     </g>
    </g>
    <g id="ytick_10">
     <g id="line2d_26">
      <path d="M 55.344554 71.5664 
L 709.2 71.5664 
" clip-path="url(#p977fc26b35)" style="fill: none; stroke-dasharray: 0.8,1.32; stroke-dashoffset: 0; stroke: #b0b0b0; stroke-opacity: 0.4; stroke-width: 0.8"/>
     </g>
     <g id="line2d_27">
      <g>
       <use xlink:href="#mbe1e7c5f49" x="55.344554" y="71.5664" style="stroke: #000000; stroke-width: 0.8"/>
      </g>
     </g>
     <g id="text_17">
      <!-- $\mathdefault{10^{5}}$ -->
      <g transform="translate(30.744554 75.365619) scale(0.1 -0.1)">
       <use xlink:href="#DejaVuSans-31" transform="translate(0 0.684375)"/>
       <use xlink:href="#DejaVuSans-30" transform="translate(63.623047 0.684375)"/>
       <use xlink:href="#DejaVuSans-35" transform="translate(128.203125 38.965625) scale(0.7)"/>
      </g>
     </g>
    </g>
    <g id="ytick_11">
     <g id="line2d_28">
      <path d="M 55.344554 39.912 
L 709.2 39.912 
" clip-path="url(#p977fc26b35)" style="fill: none; stroke-dasharray: 0.8,1.32; stroke-dashoffset: 0; stroke: #b0b0b0; stroke-opacity: 0.4; stroke-width: 0.8"/>
     </g>
     <g id="line2d_29">
      <g>
       <use xlink:href="#mbe1e7c5f49" x="55.344554" y="39.912" style="stroke: #000000; stroke-width: 0.8"/>
      </g>
     </g>
     <g id="text_18">
      <!-- $\mathdefault{10^{6}}$ -->
      <g transform="translate(30.744554 43.711219) scale(0.1 -0.1)">
       <use xlink:href="#DejaVuSans-31" transform="translate(0 0.765625)"/>
       <use xlink:href="#DejaVuSans-30" transform="translate(63.623047 0.765625)"/>
       <use xlink:href="#DejaVuSans-36" transform="translate(128.203125 39.046875) scale(0.7)"/>
      </g>
     </g>
    </g>
    <g id="ytick_12">
     <g id="line2d_30">
      <defs>
       <path id="mfe5016e144" d="M 0 0 
L -2 0 
" style="stroke: #000000; stroke-width: 0.6"/>
      </defs>
      <g>
       <use xlink:href="#mfe5016e144" x="55.344554" y="346.927076" style="stroke: #000000; stroke-width: 0.6"/>
      </g>
     </g>
    </g>
    <g id="ytick_13">
     <g id="line2d_31">
      <g>
       <use xlink:href="#mfe5016e144" x="55.344554" y="341.353013" style="stroke: #000000; stroke-width: 0.6"/>
      </g>
     </g>
    </g>
    <g id="ytick_14">
     <g id="line2d_32">
      <g>
       <use xlink:href="#mfe5016e144" x="55.344554" y="337.398152" style="stroke: #000000; stroke-width: 0.6"/>
      </g>
     </g>
    </g>
    <g id="ytick_15">
     <g id="line2d_33">
      <g>
       <use xlink:href="#mfe5016e144" x="55.344554" y="334.330524" style="stroke: #000000; stroke-width: 0.6"/>
      </g>
     </g>
    </g>
    <g id="ytick_16">
     <g id="line2d_34">
      <g>
       <use xlink:href="#mfe5016e144" x="55.344554" y="331.824089" style="stroke: #000000; stroke-width: 0.6"/>
      </g>
     </g>
    </g>
    <g id="ytick_17">
     <g id="line2d_35">
      <g>
       <use xlink:href="#mfe5016e144" x="55.344554" y="329.704929" style="stroke: #000000; stroke-width: 0.6"/>
      </g>
     </g>
    </g>
    <g id="ytick_18">
     <g id="line2d_36">
      <g>
       <use xlink:href="#mfe5016e144" x="55.344554" y="327.869228" style="stroke: #000000; stroke-width: 0.6"/>
      </g>
     </g>
    </g>
    <g id="ytick_19">
     <g id="line2d_37">
      <g>
       <use xlink:href="#mfe5016e144" x="55.344554" y="326.250026" style="stroke: #000000; stroke-width: 0.6"/>
      </g>
     </g>
    </g>
    <g id="ytick_20">
     <g id="line2d_38">
      <g>
       <use xlink:href="#mfe5016e144" x="55.344554" y="315.272676" style="stroke: #000000; stroke-width: 0.6"/>
      </g>
     </g>
    </g>
    <g id="ytick_21">
     <g id="line2d_39">
      <g>
       <use xlink:href="#mfe5016e144" x="55.344554" y="309.698613" style="stroke: #000000; stroke-width: 0.6"/>
      </g>
     </g>
    </g>
    <g id="ytick_22">
     <g id="line2d_40">
      <g>
       <use xlink:href="#mfe5016e144" x="55.344554" y="305.743752" style="stroke: #000000; stroke-width: 0.6"/>
      </g>
     </g>
    </g>
    <g id="ytick_23">
     <g id="line2d_41">
      <g>
       <use xlink:href="#mfe5016e144" x="55.344554" y="302.676124" style="stroke: #000000; stroke-width: 0.6"/>
      </g>
     </g>
    </g>
    <g id="ytick_24">
     <g id="line2d_42">
      <g>
       <use xlink:href="#mfe5016e144" x="55.344554" y="300.169689" style="stroke: #000000; stroke-width: 0.6"/>
      </g>
     </g>
    </g>
    <g id="ytick_25">
     <g id="line2d_43">
      <g>
       <use xlink:href="#mfe5016e144" x="55.344554" y="298.050529" style="stroke: #000000; stroke-width: 0.6"/>
      </g>
     </g>
    </g>
    <g id="ytick_26">
     <g id="line2d_44">
      <g>
       <use xlink:href="#mfe5016e144" x="55.344554" y="296.214828" style="stroke: #000000; stroke-width: 0.6"/>
      </g>
     </g>
    </g>
    <g id="ytick_27">
     <g id="line2d_45">
      <g>
       <use xlink:href="#mfe5016e144" x="55.344554" y="294.595626" style="stroke: #000000; stroke-width: 0.6"/>
      </g>
     </g>
    </g>
    <g id="ytick_28">
     <g id="line2d_46">
      <g>
       <use xlink:href="#mfe5016e144" x="55.344554" y="283.618276" style="stroke: #000000; stroke-width: 0.6"/>
      </g>
     </g>
    </g>
    <g id="ytick_29">
     <g id="line2d_47">
      <g>
       <use xlink:href="#mfe5016e144" x="55.344554" y="278.044213" style="stroke: #000000; stroke-width: 0.6"/>
      </g>
     </g>
    </g>
    <g id="ytick_30">
     <g id="line2d_48">
      <g>
       <use xlink:href="#mfe5016e144" x="55.344554" y="274.089352" style="stroke: #000000; stroke-width: 0.6"/>
      </g>
     </g>
    </g>
    <g id="ytick_31">
     <g id="line2d_49">
      <g>
       <use xlink:href="#mfe5016e144" x="55.344554" y="271.021724" style="stroke: #000000; stroke-width: 0.6"/>
      </g>
     </g>
    </g>
    <g id="ytick_32">
     <g id="line2d_50">
      <g>
       <use xlink:href="#mfe5016e144" x="55.344554" y="268.515289" style="stroke: #000000; stroke-width: 0.6"/>
      </g>
     </g>
    </g>
    <g id="ytick_33">
     <g id="line2d_51">
      <g>
       <use xlink:href="#mfe5016e144" x="55.344554" y="266.396129" style="stroke: #000000; stroke-width: 0.6"/>
      </g>
     </g>
    </g>
    <g id="ytick_34">
     <g id="line2d_52">
      <g>
       <use xlink:href="#mfe5016e144" x="55.344554" y="264.560428" style="stroke: #000000; stroke-width: 0.6"/>
      </g>
     </g>
    </g>
    <g id="ytick_35">
     <g id="line2d_53">
      <g>
       <use xlink:href="#mfe5016e144" x="55.344554" y="262.941226" style="stroke: #000000; stroke-width: 0.6"/>
      </g>
     </g>
    </g>
    <g id="ytick_36">
     <g id="line2d_54">
      <g>
       <use xlink:href="#mfe5016e144" x="55.344554" y="251.963876" style="stroke: #000000; stroke-width: 0.6"/>
      </g>
     </g>
    </g>
    <g id="ytick_37">
     <g id="line2d_55">
      <g>
       <use xlink:href="#mfe5016e144" x="55.344554" y="246.389813" style="stroke: #000000; stroke-width: 0.6"/>
      </g>
     </g>
    </g>
    <g id="ytick_38">
     <g id="line2d_56">
      <g>
       <use xlink:href="#mfe5016e144" x="55.344554" y="242.434952" style="stroke: #000000; stroke-width: 0.6"/>
      </g>
     </g>
    </g>
    <g id="ytick_39">
     <g id="line2d_57">
      <g>
       <use xlink:href="#mfe5016e144" x="55.344554" y="239.367324" style="stroke: #000000; stroke-width: 0.6"/>
      </g>
     </g>
    </g>
    <g id="ytick_40">
     <g id="line2d_58">
      <g>
       <use xlink:href="#mfe5016e144" x="55.344554" y="236.860889" style="stroke: #000000; stroke-width: 0.6"/>
      </g>
     </g>
    </g>
    <g id="ytick_41">
     <g id="line2d_59">
      <g>
       <use xlink:href="#mfe5016e144" x="55.344554" y="234.741729" style="stroke: #000000; stroke-width: 0.6"/>
      </g>
     </g>
    </g>
    <g id="ytick_42">
     <g id="line2d_60">
      <g>
       <use xlink:href="#mfe5016e144" x="55.344554" y="232.906028" style="stroke: #000000; stroke-width: 0.6"/>
      </g>
     </g>
    </g>
    <g id="ytick_43">
     <g id="line2d_61">
      <g>
       <use xlink:href="#mfe5016e144" x="55.344554" y="231.286826" style="stroke: #000000; stroke-width: 0.6"/>
      </g>
     </g>
    </g>
    <g id="ytick_44">
     <g id="line2d_62">
      <g>
       <use xlink:href="#mfe5016e144" x="55.344554" y="220.309476" style="stroke: #000000; stroke-width: 0.6"/>
      </g>
     </g>
    </g>
    <g id="ytick_45">
     <g id="line2d_63">
      <g>
       <use xlink:href="#mfe5016e144" x="55.344554" y="214.735413" style="stroke: #000000; stroke-width: 0.6"/>
      </g>
     </g>
    </g>
    <g id="ytick_46">
     <g id="line2d_64">
      <g>
       <use xlink:href="#mfe5016e144" x="55.344554" y="210.780552" style="stroke: #000000; stroke-width: 0.6"/>
      </g>
     </g>
    </g>
    <g id="ytick_47">
     <g id="line2d_65">
      <g>
       <use xlink:href="#mfe5016e144" x="55.344554" y="207.712924" style="stroke: #000000; stroke-width: 0.6"/>
      </g>
     </g>
    </g>
    <g id="ytick_48">
     <g id="line2d_66">
      <g>
       <use xlink:href="#mfe5016e144" x="55.344554" y="205.206489" style="stroke: #000000; stroke-width: 0.6"/>
      </g>
     </g>
    </g>
    <g id="ytick_49">
     <g id="line2d_67">
      <g>
       <use xlink:href="#mfe5016e144" x="55.344554" y="203.087329" style="stroke: #000000; stroke-width: 0.6"/>
      </g>
     </g>
    </g>
    <g id="ytick_50">
     <g id="line2d_68">
      <g>
       <use xlink:href="#mfe5016e144" x="55.344554" y="201.251628" style="stroke: #000000; stroke-width: 0.6"/>
      </g>
     </g>
    </g>
    <g id="ytick_51">
     <g id="line2d_69">
      <g>
       <use xlink:href="#mfe5016e144" x="55.344554" y="199.632426" style="stroke: #000000; stroke-width: 0.6"/>
      </g>
     </g>
    </g>
    <g id="ytick_52">
     <g id="line2d_70">
      <g>
       <use xlink:href="#mfe5016e144" x="55.344554" y="188.655076" style="stroke: #000000; stroke-width: 0.6"/>
      </g>
     </g>
    </g>
    <g id="ytick_53">
     <g id="line2d_71">
      <g>
       <use xlink:href="#mfe5016e144" x="55.344554" y="183.081013" style="stroke: #000000; stroke-width: 0.6"/>
      </g>
     </g>
    </g>
    <g id="ytick_54">
     <g id="line2d_72">
      <g>
       <use xlink:href="#mfe5016e144" x="55.344554" y="179.126152" style="stroke: #000000; stroke-width: 0.6"/>
      </g>
     </g>
    </g>
    <g id="ytick_55">
     <g id="line2d_73">
      <g>
       <use xlink:href="#mfe5016e144" x="55.344554" y="176.058524" style="stroke: #000000; stroke-width: 0.6"/>
      </g>
     </g>
    </g>
    <g id="ytick_56">
     <g id="line2d_74">
      <g>
       <use xlink:href="#mfe5016e144" x="55.344554" y="173.552089" style="stroke: #000000; stroke-width: 0.6"/>
      </g>
     </g>
    </g>
    <g id="ytick_57">
     <g id="line2d_75">
      <g>
       <use xlink:href="#mfe5016e144" x="55.344554" y="171.432929" style="stroke: #000000; stroke-width: 0.6"/>
      </g>
     </g>
    </g>
    <g id="ytick_58">
     <g id="line2d_76">
      <g>
       <use xlink:href="#mfe5016e144" x="55.344554" y="169.597228" style="stroke: #000000; stroke-width: 0.6"/>
      </g>
     </g>
    </g>
    <g id="ytick_59">
     <g id="line2d_77">
      <g>
       <use xlink:href="#mfe5016e144" x="55.344554" y="167.978026" style="stroke: #000000; stroke-width: 0.6"/>
      </g>
     </g>
    </g>
    <g id="ytick_60">
     <g id="line2d_78">
      <g>
       <use xlink:href="#mfe5016e144" x="55.344554" y="157.000676" style="stroke: #000000; stroke-width: 0.6"/>
      </g>
     </g>
    </g>
    <g id="ytick_61">
     <g id="line2d_79">
      <g>
       <use xlink:href="#mfe5016e144" x="55.344554" y="151.426613" style="stroke: #000000; stroke-width: 0.6"/>
      </g>
     </g>
    </g>
    <g id="ytick_62">
     <g id="line2d_80">
      <g>
       <use xlink:href="#mfe5016e144" x="55.344554" y="147.471752" style="stroke: #000000; stroke-width: 0.6"/>
      </g>
     </g>
    </g>
    <g id="ytick_63">
     <g id="line2d_81">
      <g>
       <use xlink:href="#mfe5016e144" x="55.344554" y="144.404124" style="stroke: #000000; stroke-width: 0.6"/>
      </g>
     </g>
    </g>
    <g id="ytick_64">
     <g id="line2d_82">
      <g>
       <use xlink:href="#mfe5016e144" x="55.344554" y="141.897689" style="stroke: #000000; stroke-width: 0.6"/>
      </g>
     </g>
    </g>
    <g id="ytick_65">
     <g id="line2d_83">
      <g>
       <use xlink:href="#mfe5016e144" x="55.344554" y="139.778529" style="stroke: #000000; stroke-width: 0.6"/>
      </g>
     </g>
    </g>
    <g id="ytick_66">
     <g id="line2d_84">
      <g>
       <use xlink:href="#mfe5016e144" x="55.344554" y="137.942828" style="stroke: #000000; stroke-width: 0.6"/>
      </g>
     </g>
    </g>
    <g id="ytick_67">
     <g id="line2d_85">
      <g>
       <use xlink:href="#mfe5016e144" x="55.344554" y="136.323626" style="stroke: #000000; stroke-width: 0.6"/>
      </g>
     </g>
    </g>
    <g id="ytick_68">
     <g id="line2d_86">
      <g>
       <use xlink:href="#mfe5016e144" x="55.344554" y="125.346276" style="stroke: #000000; stroke-width: 0.6"/>
      </g>
     </g>
    </g>
    <g id="ytick_69">
     <g id="line2d_87">
      <g>
       <use xlink:href="#mfe5016e144" x="55.344554" y="119.772213" style="stroke: #000000; stroke-width: 0.6"/>
      </g>
     </g>
    </g>
    <g id="ytick_70">
     <g id="line2d_88">
      <g>
       <use xlink:href="#mfe5016e144" x="55.344554" y="115.817352" style="stroke: #000000; stroke-width: 0.6"/>
      </g>
     </g>
    </g>
    <g id="ytick_71">
     <g id="line2d_89">
      <g>
       <use xlink:href="#mfe5016e144" x="55.344554" y="112.749724" style="stroke: #000000; stroke-width: 0.6"/>
      </g>
     </g>
    </g>
    <g id="ytick_72">
     <g id="line2d_90">
      <g>
       <use xlink:href="#mfe5016e144" x="55.344554" y="110.243289" style="stroke: #000000; stroke-width: 0.6"/>
      </g>
     </g>
    </g>
    <g id="ytick_73">
     <g id="line2d_91">
      <g>
       <use xlink:href="#mfe5016e144" x="55.344554" y="108.124129" style="stroke: #000000; stroke-width: 0.6"/>
      </g>
     </g>
    </g>
    <g id="ytick_74">
     <g id="line2d_92">
      <g>
       <use xlink:href="#mfe5016e144" x="55.344554" y="106.288428" style="stroke: #000000; stroke-width: 0.6"/>
      </g>
     </g>
    </g>
    <g id="ytick_75">
     <g id="line2d_93">
      <g>
       <use xlink:href="#mfe5016e144" x="55.344554" y="104.669226" style="stroke: #000000; stroke-width: 0.6"/>
      </g>
     </g>
    </g>
    <g id="ytick_76">
     <g id="line2d_94">
      <g>
       <use xlink:href="#mfe5016e144" x="55.344554" y="93.691876" style="stroke: #000000; stroke-width: 0.6"/>
      </g>
     </g>
    </g>
    <g id="ytick_77">
     <g id="line2d_95">
      <g>
       <use xlink:href="#mfe5016e144" x="55.344554" y="88.117813" style="stroke: #000000; stroke-width: 0.6"/>
      </g>
     </g>
    </g>
    <g id="ytick_78">
     <g id="line2d_96">
      <g>
       <use xlink:href="#mfe5016e144" x="55.344554" y="84.162952" style="stroke: #000000; stroke-width: 0.6"/>
      </g>
     </g>
    </g>
    <g id="ytick_79">
     <g id="line2d_97">
      <g>
       <use xlink:href="#mfe5016e144" x="55.344554" y="81.095324" style="stroke: #000000; stroke-width: 0.6"/>
      </g>
     </g>
    </g>
    <g id="ytick_80">
     <g id="line2d_98">
      <g>
       <use xlink:href="#mfe5016e144" x="55.344554" y="78.588889" style="stroke: #000000; stroke-width: 0.6"/>
      </g>
     </g>
    </g>
    <g id="ytick_81">
     <g id="line2d_99">
      <g>
       <use xlink:href="#mfe5016e144" x="55.344554" y="76.469729" style="stroke: #000000; stroke-width: 0.6"/>
      </g>
     </g>
    </g>
    <g id="ytick_82">
     <g id="line2d_100">
      <g>
       <use xlink:href="#mfe5016e144" x="55.344554" y="74.634028" style="stroke: #000000; stroke-width: 0.6"/>
      </g>
     </g>
    </g>
    <g id="ytick_83">
     <g id="line2d_101">
      <g>
       <use xlink:href="#mfe5016e144" x="55.344554" y="73.014826" style="stroke: #000000; stroke-width: 0.6"/>
      </g>
     </g>
    </g>
    <g id="ytick_84">
     <g id="line2d_102">
      <g>
       <use xlink:href="#mfe5016e144" x="55.344554" y="62.037476" style="stroke: #000000; stroke-width: 0.6"/>
      </g>
     </g>
    </g>
    <g id="ytick_85">
     <g id="line2d_103">
      <g>
       <use xlink:href="#mfe5016e144" x="55.344554" y="56.463413" style="stroke: #000000; stroke-width: 0.6"/>
      </g>
     </g>
    </g>
    <g id="ytick_86">
     <g id="line2d_104">
      <g>
       <use xlink:href="#mfe5016e144" x="55.344554" y="52.508552" style="stroke: #000000; stroke-width: 0.6"/>
      </g>
     </g>
    </g>
    <g id="ytick_87">
     <g id="line2d_105">
      <g>
       <use xlink:href="#mfe5016e144" x="55.344554" y="49.440924" style="stroke: #000000; stroke-width: 0.6"/>
      </g>
     </g>
    </g>
    <g id="ytick_88">
     <g id="line2d_106">
      <g>
       <use xlink:href="#mfe5016e144" x="55.344554" y="46.934489" style="stroke: #000000; stroke-width: 0.6"/>
      </g>
     </g>
    </g>
    <g id="ytick_89">
     <g id="line2d_107">
      <g>
       <use xlink:href="#mfe5016e144" x="55.344554" y="44.815329" style="stroke: #000000; stroke-width: 0.6"/>
      </g>
     </g>
    </g>
    <g id="ytick_90">
     <g id="line2d_108">
      <g>
       <use xlink:href="#mfe5016e144" x="55.344554" y="42.979628" style="stroke: #000000; stroke-width: 0.6"/>
      </g>
     </g>
    </g>
    <g id="ytick_91">
     <g id="line2d_109">
      <g>
       <use xlink:href="#mfe5016e144" x="55.344554" y="41.360426" style="stroke: #000000; stroke-width: 0.6"/>
      </g>
     </g>
    </g>
    <g id="text_19">
     <!-- Predicted pixel throughput (Mpx/s, log scale) -->
     <g transform="translate(18.764866 310.111344) rotate(-90) scale(0.1 -0.1)">
      <defs>
       <path id="DejaVuSans-78" d="M 3513 3500 
L 2247 1797 
L 3578 0 
L 2900 0 
L 1881 1375 
L 863 0 
L 184 0 
L 1544 1831 
L 300 3500 
L 978 3500 
L 1906 2253 
L 2834 3500 
L 3513 3500 
z
" transform="scale(0.015625)"/>
       <path id="DejaVuSans-67" d="M 2906 1791 
Q 2906 2416 2648 2759 
Q 2391 3103 1925 3103 
Q 1463 3103 1205 2759 
Q 947 2416 947 1791 
Q 947 1169 1205 825 
Q 1463 481 1925 481 
Q 2391 481 2648 825 
Q 2906 1169 2906 1791 
z
M 3481 434 
Q 3481 -459 3084 -895 
Q 2688 -1331 1869 -1331 
Q 1566 -1331 1297 -1286 
Q 1028 -1241 775 -1147 
L 775 -588 
Q 1028 -725 1275 -790 
Q 1522 -856 1778 -856 
Q 2344 -856 2625 -561 
Q 2906 -266 2906 331 
L 2906 616 
Q 2728 306 2450 153 
Q 2172 0 1784 0 
Q 1141 0 747 490 
Q 353 981 353 1791 
Q 353 2603 747 3093 
Q 1141 3584 1784 3584 
Q 2172 3584 2450 3431 
Q 2728 3278 2906 2969 
L 2906 3500 
L 3481 3500 
L 3481 434 
z
" transform="scale(0.015625)"/>
       <path id="DejaVuSans-28" d="M 1984 4856 
Q 1566 4138 1362 3434 
Q 1159 2731 1159 2009 
Q 1159 1288 1364 580 
Q 1569 -128 1984 -844 
L 1484 -844 
Q 1016 -109 783 600 
Q 550 1309 550 2009 
Q 550 2706 781 3412 
Q 1013 4119 1484 4856 
L 1984 4856 
z
" transform="scale(0.015625)"/>
       <path id="DejaVuSans-2f" d="M 1625 4666 
L 2156 4666 
L 531 -594 
L 0 -594 
L 1625 4666 
z
" transform="scale(0.015625)"/>
       <path id="DejaVuSans-2c" d="M 750 794 
L 1409 794 
L 1409 256 
L 897 -744 
L 494 -744 
L 750 256 
L 750 794 
z
" transform="scale(0.015625)"/>
       <path id="DejaVuSans-29" d="M 513 4856 
L 1013 4856 
Q 1481 4119 1714 3412 
Q 1947 2706 1947 2009 
Q 1947 1309 1714 600 
Q 1481 -109 1013 -844 
L 513 -844 
Q 928 -128 1133 580 
Q 1338 1288 1338 2009 
Q 1338 2731 1133 3434 
Q 928 4138 513 4856 
z
" transform="scale(0.015625)"/>
      </defs>
      <use xlink:href="#DejaVuSans-50"/>
      <use xlink:href="#DejaVuSans-72" transform="translate(58.552734 0)"/>
      <use xlink:href="#DejaVuSans-65" transform="translate(97.416016 0)"/>
      <use xlink:href="#DejaVuSans-64" transform="translate(158.939453 0)"/>
      <use xlink:href="#DejaVuSans-69" transform="translate(222.416016 0)"/>
      <use xlink:href="#DejaVuSans-63" transform="translate(250.199219 0)"/>
      <use xlink:href="#DejaVuSans-74" transform="translate(305.179688 0)"/>
      <use xlink:href="#DejaVuSans-65" transform="translate(344.388672 0)"/>
      <use xlink:href="#DejaVuSans-64" transform="translate(405.912109 0)"/>
      <use xlink:href="#DejaVuSans-20" transform="translate(469.388672 0)"/>
      <use xlink:href="#DejaVuSans-70" transform="translate(501.175781 0)"/>
      <use xlink:href="#DejaVuSans-69" transform="translate(564.652344 0)"/>
      <use xlink:href="#DejaVuSans-78" transform="translate(592.435547 0)"/>
      <use xlink:href="#DejaVuSans-65" transform="translate(648.490234 0)"/>
      <use xlink:href="#DejaVuSans-6c" transform="translate(710.013672 0)"/>
      <use xlink:href="#DejaVuSans-20" transform="translate(737.796875 0)"/>
      <use xlink:href="#DejaVuSans-74" transform="translate(769.583984 0)"/>
      <use xlink:href="#DejaVuSans-68" transform="translate(808.792969 0)"/>
      <use xlink:href="#DejaVuSans-72" transform="translate(872.171875 0)"/>
      <use xlink:href="#DejaVuSans-6f" transform="translate(911.035156 0)"/>
      <use xlink:href="#DejaVuSans-75" transform="translate(972.216797 0)"/>
      <use xlink:href="#DejaVuSans-67" transform="translate(1035.595703 0)"/>
      <use xlink:href="#DejaVuSans-68" transform="translate(1099.072266 0)"/>
      <use xlink:href="#DejaVuSans-70" transform="translate(1162.451172 0)"/>
      <use xlink:href="#DejaVuSans-75" transform="translate(1225.927734 0)"/>
      <use xlink:href="#DejaVuSans-74" transform="translate(1289.306641 0)"/>
      <use xlink:href="#DejaVuSans-20" transform="translate(1328.515625 0)"/>
      <use xlink:href="#DejaVuSans-28" transform="translate(1360.302734 0)"/>
      <use xlink:href="#DejaVuSans-4d" transform="translate(1399.316406 0)"/>
      <use xlink:href="#DejaVuSans-70" transform="translate(1485.595703 0)"/>
      <use xlink:href="#DejaVuSans-78" transform="translate(1549.072266 0)"/>
      <use xlink:href="#DejaVuSans-2f" transform="translate(1608.251953 0)"/>
      <use xlink:href="#DejaVuSans-73" transform="translate(1641.943359 0)"/>
      <use xlink:href="#DejaVuSans-2c" transform="translate(1694.042969 0)"/>
      <use xlink:href="#DejaVuSans-20" transform="translate(1725.830078 0)"/>
      <use xlink:href="#DejaVuSans-6c" transform="translate(1757.617188 0)"/>
      <use xlink:href="#DejaVuSans-6f" transform="translate(1785.400391 0)"/>
      <use xlink:href="#DejaVuSans-67" transform="translate(1846.582031 0)"/>
      <use xlink:href="#DejaVuSans-20" transform="translate(1910.058594 0)"/>
      <use xlink:href="#DejaVuSans-73" transform="translate(1941.845703 0)"/>
      <use xlink:href="#DejaVuSans-63" transform="translate(1993.945312 0)"/>
      <use xlink:href="#DejaVuSans-61" transform="translate(2048.925781 0)"/>
      <use xlink:href="#DejaVuSans-6c" transform="translate(2110.205078 0)"/>
      <use xlink:href="#DejaVuSans-65" transform="translate(2137.988281 0)"/>
      <use xlink:href="#DejaVuSans-29" transform="translate(2199.511719 0)"/>
     </g>
    </g>
   </g>
   <g id="patch_3">
    <path d="M 85.065256 31884.2384 
L 154.99632 31884.2384 
L 154.99632 324.8016 
L 85.065256 324.8016 
z
" clip-path="url(#p977fc26b35)" style="fill: #3a6ea5; stroke: #1f3a5f; stroke-linejoin: miter"/>
   </g>
   <g id="patch_4">
    <path d="M 172.479086 31884.2384 
L 242.410149 31884.2384 
L 242.410149 239.367324 
L 172.479086 239.367324 
z
" clip-path="url(#p977fc26b35)" style="fill: #3a6ea5; stroke: #1f3a5f; stroke-linejoin: miter"/>
   </g>
   <g id="patch_5">
    <path d="M 259.892915 31884.2384 
L 329.823979 31884.2384 
L 329.823979 176.058524 
L 259.892915 176.058524 
z
" clip-path="url(#p977fc26b35)" style="fill: #3a6ea5; stroke: #1f3a5f; stroke-linejoin: miter"/>
   </g>
   <g id="patch_6">
    <path d="M 347.306745 31884.2384 
L 417.237809 31884.2384 
L 417.237809 157.000676 
L 347.306745 157.000676 
z
" clip-path="url(#p977fc26b35)" style="fill: #3a6ea5; stroke: #1f3a5f; stroke-linejoin: miter"/>
   </g>
   <g id="patch_7">
    <path d="M 434.720575 31884.2384 
L 504.651639 31884.2384 
L 504.651639 134.8752 
L 434.720575 134.8752 
z
" clip-path="url(#p977fc26b35)" style="fill: #3a6ea5; stroke: #1f3a5f; stroke-linejoin: miter"/>
   </g>
   <g id="patch_8">
    <path d="M 522.134404 31884.2384 
L 592.065468 31884.2384 
L 592.065468 144.404124 
L 522.134404 144.404124 
z
" clip-path="url(#p977fc26b35)" style="fill: #3a6ea5; stroke: #1f3a5f; stroke-linejoin: miter"/>
   </g>
   <g id="patch_9">
    <path d="M 609.548234 31884.2384 
L 679.479298 31884.2384 
L 679.479298 81.095324 
L 609.548234 81.095324 
z
" clip-path="url(#p977fc26b35)" style="fill: #3a6ea5; stroke: #1f3a5f; stroke-linejoin: miter"/>
   </g>
   <g id="patch_10">
    <path d="M 55.344554 356.456 
L 55.344554 39.912 
" style="fill: none; stroke: #000000; stroke-width: 0.8; stroke-linejoin: miter; stroke-linecap: square"/>
   </g>
   <g id="patch_11">
    <path d="M 55.344554 356.456 
L 709.2 356.456 
" style="fill: none; stroke: #000000; stroke-width: 0.8; stroke-linejoin: miter; stroke-linecap: square"/>
   </g>
   <g id="text_20">
    <!-- interpreter -->
    <g style="fill: #444444" transform="translate(95.788444 318.304286) scale(0.09 -0.09)">
     <use xlink:href="#DejaVuSans-69"/>
     <use xlink:href="#DejaVuSans-6e" transform="translate(27.783203 0)"/>
     <use xlink:href="#DejaVuSans-74" transform="translate(91.162109 0)"/>
     <use xlink:href="#DejaVuSans-65" transform="translate(130.371094 0)"/>
     <use xlink:href="#DejaVuSans-72" transform="translate(191.894531 0)"/>
     <use xlink:href="#DejaVuSans-70" transform="translate(233.007812 0)"/>
     <use xlink:href="#DejaVuSans-72" transform="translate(296.484375 0)"/>
     <use xlink:href="#DejaVuSans-65" transform="translate(335.347656 0)"/>
     <use xlink:href="#DejaVuSans-74" transform="translate(396.871094 0)"/>
     <use xlink:href="#DejaVuSans-65" transform="translate(436.080078 0)"/>
     <use xlink:href="#DejaVuSans-72" transform="translate(497.603516 0)"/>
    </g>
   </g>
   <g id="text_21">
    <!-- vectorised -->
    <g style="fill: #444444" transform="translate(183.950399 232.87001) scale(0.09 -0.09)">
     <use xlink:href="#DejaVuSans-76"/>
     <use xlink:href="#DejaVuSans-65" transform="translate(59.179688 0)"/>
     <use xlink:href="#DejaVuSans-63" transform="translate(120.703125 0)"/>
     <use xlink:href="#DejaVuSans-74" transform="translate(175.683594 0)"/>
     <use xlink:href="#DejaVuSans-6f" transform="translate(214.892578 0)"/>
     <use xlink:href="#DejaVuSans-72" transform="translate(276.074219 0)"/>
     <use xlink:href="#DejaVuSans-69" transform="translate(317.1875 0)"/>
     <use xlink:href="#DejaVuSans-73" transform="translate(344.970703 0)"/>
     <use xlink:href="#DejaVuSans-65" transform="translate(397.070312 0)"/>
     <use xlink:href="#DejaVuSans-64" transform="translate(458.59375 0)"/>
    </g>
   </g>
   <g id="text_22">
    <!-- JIT -->
    <g style="fill: #444444" transform="translate(289.454932 169.56121) scale(0.09 -0.09)">
     <defs>
      <path id="DejaVuSans-4a" d="M 628 4666 
L 1259 4666 
L 1259 325 
Q 1259 -519 939 -900 
Q 619 -1281 -91 -1281 
L -331 -1281 
L -331 -750 
L -134 -750 
Q 284 -750 456 -515 
Q 628 -281 628 325 
L 628 4666 
z
" transform="scale(0.015625)"/>
      <path id="DejaVuSans-49" d="M 628 4666 
L 1259 4666 
L 1259 0 
L 628 0 
L 628 4666 
z
" transform="scale(0.015625)"/>
      <path id="DejaVuSans-54" d="M -19 4666 
L 3928 4666 
L 3928 4134 
L 2272 4134 
L 2272 0 
L 1638 0 
L 1638 4134 
L -19 4134 
L -19 4666 
z
" transform="scale(0.015625)"/>
     </defs>
     <use xlink:href="#DejaVuSans-4a"/>
     <use xlink:href="#DejaVuSans-49" transform="translate(29.492188 0)"/>
     <use xlink:href="#DejaVuSans-54" transform="translate(58.984375 0)"/>
    </g>
   </g>
   <g id="text_23">
    <!-- + early exits -->
    <g style="fill: #444444" transform="translate(353.638918 150.503362) scale(0.09 -0.09)">
     <defs>
      <path id="DejaVuSans-2b" d="M 2944 4013 
L 2944 2272 
L 4684 2272 
L 4684 1741 
L 2944 1741 
L 2944 0 
L 2419 0 
L 2419 1741 
L 678 1741 
L 678 2272 
L 2419 2272 
L 2419 4013 
L 2944 4013 
z
" transform="scale(0.015625)"/>
     </defs>
     <use xlink:href="#DejaVuSans-2b"/>
     <use xlink:href="#DejaVuSans-20" transform="translate(83.789062 0)"/>
     <use xlink:href="#DejaVuSans-65" transform="translate(115.576172 0)"/>
     <use xlink:href="#DejaVuSans-61" transform="translate(177.099609 0)"/>
     <use xlink:href="#DejaVuSans-72" transform="translate(238.378906 0)"/>
     <use xlink:href="#DejaVuSans-6c" transform="translate(279.492188 0)"/>
     <use xlink:href="#DejaVuSans-79" transform="translate(307.275391 0)"/>
     <use xlink:href="#DejaVuSans-20" transform="translate(366.455078 0)"/>
     <use xlink:href="#DejaVuSans-65" transform="translate(398.242188 0)"/>
     <use xlink:href="#DejaVuSans-78" transform="translate(458.015625 0)"/>
     <use xlink:href="#DejaVuSans-69" transform="translate(517.195312 0)"/>
     <use xlink:href="#DejaVuSans-74" transform="translate(544.978516 0)"/>
     <use xlink:href="#DejaVuSans-73" transform="translate(584.1875 0)"/>
    </g>
   </g>
   <g id="text_24">
    <!-- + 8 cores -->
    <g style="fill: #444444" transform="translate(448.102279 128.377886) scale(0.09 -0.09)">
     <defs>
      <path id="DejaVuSans-38" d="M 2034 2216 
Q 1584 2216 1326 1975 
Q 1069 1734 1069 1313 
Q 1069 891 1326 650 
Q 1584 409 2034 409 
Q 2484 409 2743 651 
Q 3003 894 3003 1313 
Q 3003 1734 2745 1975 
Q 2488 2216 2034 2216 
z
M 1403 2484 
Q 997 2584 770 2862 
Q 544 3141 544 3541 
Q 544 4100 942 4425 
Q 1341 4750 2034 4750 
Q 2731 4750 3128 4425 
Q 3525 4100 3525 3541 
Q 3525 3141 3298 2862 
Q 3072 2584 2669 2484 
Q 3125 2378 3379 2068 
Q 3634 1759 3634 1313 
Q 3634 634 3220 271 
Q 2806 -91 2034 -91 
Q 1263 -91 848 271 
Q 434 634 434 1313 
Q 434 1759 690 2068 
Q 947 2378 1403 2484 
z
M 1172 3481 
Q 1172 3119 1398 2916 
Q 1625 2713 2034 2713 
Q 2441 2713 2670 2916 
Q 2900 3119 2900 3481 
Q 2900 3844 2670 4047 
Q 2441 4250 2034 4250 
Q 1625 4250 1398 4047 
Q 1172 3844 1172 3481 
z
" transform="scale(0.015625)"/>
     </defs>
     <use xlink:href="#DejaVuSans-2b"/>
     <use xlink:href="#DejaVuSans-20" transform="translate(83.789062 0)"/>
     <use xlink:href="#DejaVuSans-38" transform="translate(115.576172 0)"/>
     <use xlink:href="#DejaVuSans-20" transform="translate(179.199219 0)"/>
     <use xlink:href="#DejaVuSans-63" transform="translate(210.986328 0)"/>
     <use xlink:href="#DejaVuSans-6f" transform="translate(265.966797 0)"/>
     <use xlink:href="#DejaVuSans-72" transform="translate(327.148438 0)"/>
     <use xlink:href="#DejaVuSans-65" transform="translate(366.011719 0)"/>
     <use xlink:href="#DejaVuSans-73" transform="translate(427.535156 0)"/>
    </g>
   </g>
   <g id="text_25">
    <!-- GPU, py-driven -->
    <g style="fill: #444444" transform="translate(523.439936 137.90681) scale(0.09 -0.09)">
     <defs>
      <path id="DejaVuSans-47" d="M 3809 666 
L 3809 1919 
L 2778 1919 
L 2778 2438 
L 4434 2438 
L 4434 434 
Q 4069 175 3628 42 
Q 3188 -91 2688 -91 
Q 1594 -91 976 548 
Q 359 1188 359 2328 
Q 359 3472 976 4111 
Q 1594 4750 2688 4750 
Q 3144 4750 3555 4637 
Q 3966 4525 4313 4306 
L 4313 3634 
Q 3963 3931 3569 4081 
Q 3175 4231 2741 4231 
Q 1884 4231 1454 3753 
Q 1025 3275 1025 2328 
Q 1025 1384 1454 906 
Q 1884 428 2741 428 
Q 3075 428 3337 486 
Q 3600 544 3809 666 
z
" transform="scale(0.015625)"/>
      <path id="DejaVuSans-55" d="M 556 4666 
L 1191 4666 
L 1191 1831 
Q 1191 1081 1462 751 
Q 1734 422 2344 422 
Q 2950 422 3222 751 
Q 3494 1081 3494 1831 
L 3494 4666 
L 4128 4666 
L 4128 1753 
Q 4128 841 3676 375 
Q 3225 -91 2344 -91 
Q 1459 -91 1007 375 
Q 556 841 556 1753 
L 556 4666 
z
" transform="scale(0.015625)"/>
      <path id="DejaVuSans-2d" d="M 313 2009 
L 1997 2009 
L 1997 1497 
L 313 1497 
L 313 2009 
z
" transform="scale(0.015625)"/>
     </defs>
     <use xlink:href="#DejaVuSans-47"/>
     <use xlink:href="#DejaVuSans-50" transform="translate(77.490234 0)"/>
     <use xlink:href="#DejaVuSans-55" transform="translate(137.792969 0)"/>
     <use xlink:href="#DejaVuSans-2c" transform="translate(210.986328 0)"/>
     <use xlink:href="#DejaVuSans-20" transform="translate(242.773438 0)"/>
     <use xlink:href="#DejaVuSans-70" transform="translate(274.560547 0)"/>
     <use xlink:href="#DejaVuSans-79" transform="translate(338.037109 0)"/>
     <use xlink:href="#DejaVuSans-2d" transform="translate(395.466797 0)"/>
     <use xlink:href="#DejaVuSans-64" transform="translate(431.550781 0)"/>
     <use xlink:href="#DejaVuSans-72" transform="translate(495.027344 0)"/>
     <use xlink:href="#DejaVuSans-69" transform="translate(536.140625 0)"/>
     <use xlink:href="#DejaVuSans-76" transform="translate(563.923828 0)"/>
     <use xlink:href="#DejaVuSans-65" transform="translate(623.103516 0)"/>
     <use xlink:href="#DejaVuSans-6e" transform="translate(684.626953 0)"/>
    </g>
   </g>
   <g id="text_26">
    <!-- GPU, on-device -->
    <g style="fill: #444444" transform="translate(610.148532 74.59801) scale(0.09 -0.09)">
     <use xlink:href="#DejaVuSans-47"/>
     <use xlink:href="#DejaVuSans-50" transform="translate(77.490234 0)"/>
     <use xlink:href="#DejaVuSans-55" transform="translate(137.792969 0)"/>
     <use xlink:href="#DejaVuSans-2c" transform="translate(210.986328 0)"/>
     <use xlink:href="#DejaVuSans-20" transform="translate(242.773438 0)"/>
     <use xlink:href="#DejaVuSans-6f" transform="translate(274.560547 0)"/>
     <use xlink:href="#DejaVuSans-6e" transform="translate(335.742188 0)"/>
     <use xlink:href="#DejaVuSans-2d" transform="translate(399.121094 0)"/>
     <use xlink:href="#DejaVuSans-64" transform="translate(435.205078 0)"/>
     <use xlink:href="#DejaVuSans-65" transform="translate(498.681641 0)"/>
     <use xlink:href="#DejaVuSans-76" transform="translate(560.205078 0)"/>
     <use xlink:href="#DejaVuSans-69" transform="translate(619.384766 0)"/>
     <use xlink:href="#DejaVuSans-63" transform="translate(647.167969 0)"/>
     <use xlink:href="#DejaVuSans-65" transform="translate(702.148438 0)"/>
    </g>
   </g>
   <g id="text_27">
    <!-- PREDICTED — no measurements yet -->
    <g style="fill: #888888" transform="translate(537.591602 56.246914) scale(0.09 -0.09)">
     <defs>
      <path id="DejaVuSans-Oblique-50" d="M 1081 4666 
L 2541 4666 
Q 3178 4666 3512 4369 
Q 3847 4072 3847 3500 
Q 3847 2731 3353 2303 
Q 2859 1875 1966 1875 
L 1172 1875 
L 806 0 
L 172 0 
L 1081 4666 
z
M 1613 4147 
L 1275 2394 
L 2069 2394 
Q 2606 2394 2893 2669 
Q 3181 2944 3181 3456 
Q 3181 3784 2986 3965 
Q 2791 4147 2438 4147 
L 1613 4147 
z
" transform="scale(0.015625)"/>
      <path id="DejaVuSans-Oblique-52" d="M 1613 4147 
L 1294 2491 
L 2106 2491 
Q 2584 2491 2879 2755 
Q 3175 3019 3175 3444 
Q 3175 3784 2976 3965 
Q 2778 4147 2406 4147 
L 1613 4147 
z
M 2772 2241 
Q 2972 2194 3105 2009 
Q 3238 1825 3413 1275 
L 3809 0 
L 3144 0 
L 2778 1197 
Q 2638 1659 2453 1815 
Q 2269 1972 1888 1972 
L 1191 1972 
L 806 0 
L 172 0 
L 1081 4666 
L 2503 4666 
Q 3150 4666 3495 4373 
Q 3841 4081 3841 3531 
Q 3841 3044 3547 2687 
Q 3253 2331 2772 2241 
z
" transform="scale(0.015625)"/>
      <path id="DejaVuSans-Oblique-45" d="M 1081 4666 
L 4031 4666 
L 3928 4134 
L 1606 4134 
L 1338 2753 
L 3566 2753 
L 3463 2222 
L 1234 2222 
L 909 531 
L 3284 531 
L 3181 0 
L 172 0 
L 1081 4666 
z
" transform="scale(0.015625)"/>
      <path id="DejaVuSans-Oblique-44" d="M 1081 4666 
L 2438 4666 
Q 3519 4666 4070 4208 
Q 4622 3750 4622 2847 
Q 4622 2250 4412 1698 
Q 4203 1147 3834 769 
Q 3463 381 2891 190 
Q 2319 0 1538 0 
L 172 0 
L 1081 4666 
z
M 1613 4147 
L 909 519 
L 1734 519 
Q 2794 519 3375 1128 
Q 3956 1738 3956 2847 
Q 3956 3519 3581 3833 
Q 3206 4147 2406 4147 
L 1613 4147 
z
" transform="scale(0.015625)"/>
      <path id="DejaVuSans-Oblique-49" d="M 1081 4666 
L 1716 4666 
L 806 0 
L 172 0 
L 1081 4666 
z
" transform="scale(0.015625)"/>
      <path id="DejaVuSans-Oblique-43" d="M 4447 4306 
L 4319 3641 
Q 4019 3944 3683 4091 
Q 3347 4238 2956 4238 
Q 2422 4238 2017 3981 
Q 1613 3725 1319 3200 
Q 1131 2863 1032 2486 
Q 934 2109 934 1728 
Q 934 1091 1264 756 
Q 1594 422 2222 422 
Q 2656 422 3056 561 
Q 3456 700 3834 978 
L 3688 231 
Q 3316 72 2936 -9 
Q 2556 -91 2175 -91 
Q 1278 -91 773 396 
Q 269 884 269 1753 
Q 269 2309 461 2846 
Q 653 3384 1013 3828 
Q 1394 4300 1883 4525 
Q 2372 4750 3022 4750 
Q 3422 4750 3780 4639 
Q 4138 4528 4447 4306 
z
" transform="scale(0.015625)"/>
      <path id="DejaVuSans-Oblique-54" d="M 378 4666 
L 4325 4666 
L 4225 4134 
L 2559 4134 
L 1759 0 
L 1125 0 
L 1925 4134 
L 275 4134 
L 378 4666 
z
" transform="scale(0.015625)"/>
      <path id="DejaVuSans-Oblique-20" transform="scale(0.015625)"/>
      <path id="DejaVuSans-Oblique-2014" d="M 356 1978 
L 6131 1978 
L 6044 1528 
L 269 1528 
L 356 1978 
z
" transform="scale(0.015625)"/>
      <path id="DejaVuSans-Oblique-6e" d="M 3566 2113 
L 3156 0 
L 2578 0 
L 2988 2091 
Q 3016 2238 3031 2350 
Q 3047 2463 3047 2528 
Q 3047 2791 2881 2937 
Q 2716 3084 2419 3084 
Q 1956 3084 1622 2776 
Q 1288 2469 1184 1941 
L 800 0 
L 225 0 
L 903 3500 
L 1478 3500 
L 1363 2950 
Q 1603 3253 1940 3418 
Q 2278 3584 2650 3584 
Q 3113 3584 3367 3334 
Q 3622 3084 3622 2631 
Q 3622 2519 3608 2391 
Q 3594 2263 3566 2113 
z
" transform="scale(0.015625)"/>
      <path id="DejaVuSans-Oblique-6f" d="M 1625 -91 
Q 1009 -91 651 289 
Q 294 669 294 1325 
Q 294 1706 417 2101 
Q 541 2497 738 2766 
Q 1047 3184 1428 3384 
Q 1809 3584 2291 3584 
Q 2888 3584 3255 3212 
Q 3622 2841 3622 2241 
Q 3622 1825 3500 1412 
Q 3378 1000 3181 728 
Q 2875 309 2494 109 
Q 2113 -91 1625 -91 
z
M 891 1344 
Q 891 869 1089 633 
Q 1288 397 1691 397 
Q 2269 397 2648 901 
Q 3028 1406 3028 2181 
Q 3028 2634 2825 2865 
Q 2622 3097 2228 3097 
Q 1903 3097 1650 2945 
Q 1397 2794 1197 2484 
Q 1050 2253 970 1956 
Q 891 1659 891 1344 
z
" transform="scale(0.015625)"/>
      <path id="DejaVuSans-Oblique-6d" d="M 5747 2113 
L 5338 0 
L 4763 0 
L 5166 2094 
Q 5191 2228 5203 2325 
Q 5216 2422 5216 2491 
Q 5216 2772 5059 2928 
Q 4903 3084 4622 3084 
Q 4203 3084 3875 2770 
Q 3547 2456 3450 1953 
L 3066 0 
L 2491 0 
L 2900 2094 
Q 2925 2209 2937 2307 
Q 2950 2406 2950 2484 
Q 2950 2769 2794 2926 
Q 2638 3084 2363 3084 
Q 1938 3084 1609 2770 
Q 1281 2456 1184 1953 
L 800 0 
L 225 0 
L 909 3500 
L 1484 3500 
L 1375 2956 
Q 1609 3263 1923 3423 
Q 2238 3584 2597 3584 
Q 2978 3584 3223 3384 
Q 3469 3184 3519 2828 
Q 3781 3197 4126 3390 
Q 4472 3584 4856 3584 
Q 5306 3584 5551 3325 
Q 5797 3066 5797 2591 
Q 5797 2488 5784 2364 
Q 5772 2241 5747 2113 
z
" transform="scale(0.015625)"/>
      <path id="DejaVuSans-Oblique-65" d="M 3078 2063 
Q 3088 2113 3092 2166 
Q 3097 2219 3097 2272 
Q 3097 2653 2873 2875 
Q 2650 3097 2266 3097 
Q 1838 3097 1509 2826 
Q 1181 2556 1013 2059 
L 3078 2063 
z
M 3578 1613 
L 903 1613 
Q 884 1494 878 1425 
Q 872 1356 872 1306 
Q 872 872 1139 634 
Q 1406 397 1894 397 
Q 2269 397 2603 481 
Q 2938 566 3225 728 
L 3116 159 
Q 2806 34 2476 -28 
Q 2147 -91 1806 -91 
Q 1078 -91 686 257 
Q 294 606 294 1247 
Q 294 1794 489 2264 
Q 684 2734 1063 3103 
Q 1306 3334 1642 3459 
Q 1978 3584 2356 3584 
Q 2950 3584 3301 3228 
Q 3653 2872 3653 2272 
Q 3653 2128 3634 1964 
Q 3616 1800 3578 1613 
z
" transform="scale(0.015625)"/>
      <path id="DejaVuSans-Oblique-61" d="M 3438 1997 
L 3047 0 
L 2472 0 
L 2578 531 
Q 2325 219 2001 64 
Q 1678 -91 1281 -91 
Q 834 -91 548 182 
Q 263 456 263 884 
Q 263 1497 752 1853 
Q 1241 2209 2100 2209 
L 2900 2209 
L 2931 2363 
Q 2938 2388 2941 2417 
Q 2944 2447 2944 2509 
Q 2944 2788 2717 2942 
Q 2491 3097 2081 3097 
Q 1800 3097 1504 3025 
Q 1209 2953 897 2809 
L 997 3341 
Q 1322 3463 1633 3523 
Q 1944 3584 2234 3584 
Q 2853 3584 3176 3315 
Q 3500 3047 3500 2534 
Q 3500 2431 3484 2292 
Q 3469 2153 3438 1997 
z
M 2816 1759 
L 2241 1759 
Q 1534 1759 1195 1570 
Q 856 1381 856 984 
Q 856 709 1029 553 
Q 1203 397 1509 397 
Q 1978 397 2328 733 
Q 2678 1069 2791 1631 
L 2816 1759 
z
" transform="scale(0.015625)"/>
      <path id="DejaVuSans-Oblique-73" d="M 3200 3397 
L 3091 2853 
Q 2863 2978 2609 3040 
Q 2356 3103 2088 3103 
Q 1634 3103 1373 2948 
Q 1113 2794 1113 2528 
Q 1113 2219 1719 2053 
Q 1766 2041 1788 2034 
L 1972 1978 
Q 2547 1819 2739 1644 
Q 2931 1469 2931 1166 
Q 2931 609 2489 259 
Q 2047 -91 1331 -91 
Q 1053 -91 747 -37 
Q 441 16 72 128 
L 184 722 
Q 500 559 806 475 
Q 1113 391 1394 391 
Q 1816 391 2080 572 
Q 2344 753 2344 1031 
Q 2344 1331 1650 1516 
L 1591 1531 
L 1394 1581 
Q 956 1697 753 1886 
Q 550 2075 550 2369 
Q 550 2928 970 3256 
Q 1391 3584 2113 3584 
Q 2397 3584 2667 3537 
Q 2938 3491 3200 3397 
z
" transform="scale(0.015625)"/>
      <path id="DejaVuSans-Oblique-75" d="M 428 1388 
L 838 3500 
L 1416 3500 
L 1006 1409 
Q 975 1256 961 1147 
Q 947 1038 947 966 
Q 947 700 1109 554 
Q 1272 409 1569 409 
Q 2031 409 2368 721 
Q 2706 1034 2809 1563 
L 3194 3500 
L 3769 3500 
L 3091 0 
L 2516 0 
L 2631 550 
Q 2388 244 2052 76 
Q 1716 -91 1338 -91 
Q 878 -91 622 161 
Q 366 413 366 863 
Q 366 956 381 1097 
Q 397 1238 428 1388 
z
" transform="scale(0.015625)"/>
      <path id="DejaVuSans-Oblique-72" d="M 2853 2969 
Q 2766 3016 2653 3041 
Q 2541 3066 2413 3066 
Q 1953 3066 1609 2717 
Q 1266 2369 1153 1784 
L 800 0 
L 225 0 
L 909 3500 
L 1484 3500 
L 1375 2956 
Q 1603 3259 1920 3421 
Q 2238 3584 2597 3584 
Q 2691 3584 2781 3573 
Q 2872 3563 2963 3538 
L 2853 2969 
z
" transform="scale(0.015625)"/>
      <path id="DejaVuSans-Oblique-74" d="M 2706 3500 
L 2619 3053 
L 1472 3053 
L 1100 1153 
Q 1081 1047 1072 975 
Q 1063 903 1063 863 
Q 1063 663 1183 572 
Q 1303 481 1569 481 
L 2150 481 
L 2053 0 
L 1503 0 
Q 991 0 739 200 
Q 488 400 488 806 
Q 488 878 497 964 
Q 506 1050 525 1153 
L 897 3053 
L 409 3053 
L 500 3500 
L 978 3500 
L 1172 4494 
L 1747 4494 
L 1556 3500 
L 2706 3500 
z
" transform="scale(0.015625)"/>
      <path id="DejaVuSans-Oblique-79" d="M 1588 -325 
Q 1188 -997 936 -1164 
Q 684 -1331 294 -1331 
L -159 -1331 
L -63 -850 
L 269 -850 
Q 509 -850 678 -719 
Q 847 -588 1056 -206 
L 1234 128 
L 459 3500 
L 1069 3500 
L 1650 819 
L 3256 3500 
L 3859 3500 
L 1588 -325 
z
" transform="scale(0.015625)"/>
     </defs>
     <use xlink:href="#DejaVuSans-Oblique-50"/>
     <use xlink:href="#DejaVuSans-Oblique-52" transform="translate(60.302734 0)"/>
     <use xlink:href="#DejaVuSans-Oblique-45" transform="translate(129.785156 0)"/>
     <use xlink:href="#DejaVuSans-Oblique-44" transform="translate(192.96875 0)"/>
     <use xlink:href="#DejaVuSans-Oblique-49" transform="translate(269.970703 0)"/>
     <use xlink:href="#DejaVuSans-Oblique-43" transform="translate(299.462891 0)"/>
     <use xlink:href="#DejaVuSans-Oblique-54" transform="translate(369.287109 0)"/>
     <use xlink:href="#DejaVuSans-Oblique-45" transform="translate(430.371094 0)"/>
     <use xlink:href="#DejaVuSans-Oblique-44" transform="translate(493.554688 0)"/>
     <use xlink:href="#DejaVuSans-Oblique-20" transform="translate(570.556641 0)"/>
     <use xlink:href="#DejaVuSans-Oblique-2014" transform="translate(602.34375 0)"/>
     <use xlink:href="#DejaVuSans-Oblique-20" transform="translate(702.34375 0)"/>
     <use xlink:href="#DejaVuSans-Oblique-6e" transform="translate(734.130859 0)"/>
     <use xlink:href="#DejaVuSans-Oblique-6f" transform="translate(797.509766 0)"/>
     <use xlink:href="#DejaVuSans-Oblique-20" transform="translate(858.691406 0)"/>
     <use xlink:href="#DejaVuSans-Oblique-6d" transform="translate(890.478516 0)"/>
     <use xlink:href="#DejaVuSans-Oblique-65" transform="translate(987.890625 0)"/>
     <use xlink:href="#DejaVuSans-Oblique-61" transform="translate(1049.414062 0)"/>
     <use xlink:href="#DejaVuSans-Oblique-73" transform="translate(1110.693359 0)"/>
     <use xlink:href="#DejaVuSans-Oblique-75" transform="translate(1162.792969 0)"/>
     <use xlink:href="#DejaVuSans-Oblique-72" transform="translate(1226.171875 0)"/>
     <use xlink:href="#DejaVuSans-Oblique-65" transform="translate(1267.285156 0)"/>
     <use xlink:href="#DejaVuSans-Oblique-6d" transform="translate(1328.808594 0)"/>
     <use xlink:href="#DejaVuSans-Oblique-65" transform="translate(1426.220703 0)"/>
     <use xlink:href="#DejaVuSans-Oblique-6e" transform="translate(1487.744141 0)"/>
     <use xlink:href="#DejaVuSans-Oblique-74" transform="translate(1551.123047 0)"/>
     <use xlink:href="#DejaVuSans-Oblique-73" transform="translate(1590.332031 0)"/>
     <use xlink:href="#DejaVuSans-Oblique-20" transform="translate(1642.431641 0)"/>
     <use xlink:href="#DejaVuSans-Oblique-79" transform="translate(1674.21875 0)"/>
     <use xlink:href="#DejaVuSans-Oblique-65" transform="translate(1733.398438 0)"/>
     <use xlink:href="#DejaVuSans-Oblique-74" transform="translate(1794.921875 0)"/>
    </g>
   </g>
   <g id="text_28">
    <!-- Kernel story: same problem, seven implementations -->
    <g transform="translate(225.537277 20.474625) scale(0.12 -0.12)">
     <defs>
      <path id="DejaVuSans-4b" d="M 628 4666 
L 1259 4666 
L 1259 2694 
L 3353 4666 
L 4166 4666 
L 1850 2491 
L 4331 0 
L 3500 0 
L 1259 2247 
L 1259 0 
L 628 0 
L 628 4666 
z
" transform="scale(0.015625)"/>
      <path id="DejaVuSans-3a" d="M 750 794 
L 1409 794 
L 1409 0 
L 750 0 
L 750 794 
z
M 750 3309 
L 1409 3309 
L 1409 2516 
L 750 2516 
L 750 3309 
z
" transform="scale(0.015625)"/>
     </defs>
     <use xlink:href="#DejaVuSans-4b"/>
     <use xlink:href="#DejaVuSans-65" transform="translate(60.576172 0)"/>
     <use xlink:href="#DejaVuSans-72" transform="translate(122.099609 0)"/>
     <use xlink:href="#DejaVuSans-6e" transform="translate(161.462891 0)"/>
     <use xlink:href="#DejaVuSans-65" transform="translate(224.841797 0)"/>
     <use xlink:href="#DejaVuSans-6c" transform="translate(286.365234 0)"/>
     <use xlink:href="#DejaVuSans-20" transform="translate(314.148438 0)"/>
     <use xlink:href="#DejaVuSans-73" transform="translate(345.935547 0)"/>
     <use xlink:href="#DejaVuSans-74" transform="translate(398.035156 0)"/>
     <use xlink:href="#DejaVuSans-6f" transform="translate(437.244141 0)"/>
     <use xlink:href="#DejaVuSans-72" transform="translate(498.425781 0)"/>
     <use xlink:href="#DejaVuSans-79" transform="translate(539.539062 0)"/>
     <use xlink:href="#DejaVuSans-3a" transform="translate(591.46875 0)"/>
     <use xlink:href="#DejaVuSans-20" transform="translate(625.160156 0)"/>
     <use xlink:href="#DejaVuSans-73" transform="translate(656.947266 0)"/>
     <use xlink:href="#DejaVuSans-61" transform="translate(709.046875 0)"/>
     <use xlink:href="#DejaVuSans-6d" transform="translate(770.326172 0)"/>
     <use xlink:href="#DejaVuSans-65" transform="translate(867.738281 0)"/>
     <use xlink:href="#DejaVuSans-20" transform="translate(929.261719 0)"/>
     <use xlink:href="#DejaVuSans-70" transform="translate(961.048828 0)"/>
     <use xlink:href="#DejaVuSans-72" transform="translate(1024.525391 0)"/>
     <use xlink:href="#DejaVuSans-6f" transform="translate(1063.388672 0)"/>
     <use xlink:href="#DejaVuSans-62" transform="translate(1124.570312 0)"/>
     <use xlink:href="#DejaVuSans-6c" transform="translate(1188.046875 0)"/>
     <use xlink:href="#DejaVuSans-65" transform="translate(1215.830078 0)"/>
     <use xlink:href="#DejaVuSans-6d" transform="translate(1277.353516 0)"/>
     <use xlink:href="#DejaVuSans-2c" transform="translate(1374.765625 0)"/>
     <use xlink:href="#DejaVuSans-20" transform="translate(1406.552734 0)"/>
     <use xlink:href="#DejaVuSans-73" transform="translate(1438.339844 0)"/>
     <use xlink:href="#DejaVuSans-65" transform="translate(1490.439453 0)"/>
     <use xlink:href="#DejaVuSans-76" transform="translate(1551.962891 0)"/>
     <use xlink:href="#DejaVuSans-65" transform="translate(1611.142578 0)"/>
     <use xlink:href="#DejaVuSans-6e" transform="translate(1672.666016 0)"/>
     <use xlink:href="#DejaVuSans-20" transform="translate(1736.044922 0)"/>
     <use xlink:href="#DejaVuSans-69" transform="translate(1767.832031 0)"/>
     <use xlink:href="#DejaVuSans-6d" transform="translate(1795.615234 0)"/>
     <use xlink:href="#DejaVuSans-70" transform="translate(1893.027344 0)"/>
     <use xlink:href="#DejaVuSans-6c" transform="translate(1956.503906 0)"/>
     <use xlink:href="#DejaVuSans-65" transform="translate(1984.287109 0)"/>
     <use xlink:href="#DejaVuSans-6d" transform="translate(2045.810547 0)"/>
     <use xlink:href="#DejaVuSans-65" transform="translate(2143.222656 0)"/>
     <use xlink:href="#DejaVuSans-6e" transform="translate(2204.746094 0)"/>
     <use xlink:href="#DejaVuSans-74" transform="translate(2268.125 0)"/>
     <use xlink:href="#DejaVuSans-61" transform="translate(2307.333984 0)"/>
     <use xlink:href="#DejaVuSans-74" transform="translate(2368.613281 0)"/>
     <use xlink:href="#DejaVuSans-69" transform="translate(2407.822266 0)"/>
     <use xlink:href="#DejaVuSans-6f" transform="translate(2435.605469 0)"/>
     <use xlink:href="#DejaVuSans-6e" transform="translate(2496.787109 0)"/>
     <use xlink:href="#DejaVuSans-73" transform="translate(2560.166016 0)"/>
    </g>
    <!-- Predicted throughput at 1000² × max_iter=256, canonical wide view -->
    <g transform="translate(175.494464 33.912) scale(0.12 -0.12)">
     <defs>
      <path id="DejaVuSans-b2" d="M 838 2444 
L 2163 2444 
L 2163 2088 
L 294 2088 
L 294 2431 
Q 400 2528 597 2703 
Q 1672 3656 1672 3950 
Q 1672 4156 1509 4282 
Q 1347 4409 1081 4409 
Q 919 4409 728 4354 
Q 538 4300 313 4191 
L 313 4575 
Q 553 4663 761 4706 
Q 969 4750 1147 4750 
Q 1600 4750 1872 4544 
Q 2144 4338 2144 4000 
Q 2144 3566 1109 2678 
Q 934 2528 838 2444 
z
" transform="scale(0.015625)"/>
      <path id="DejaVuSans-d7" d="M 4488 3438 
L 3059 2003 
L 4488 575 
L 4116 197 
L 2681 1631 
L 1247 197 
L 878 575 
L 2303 2003 
L 878 3438 
L 1247 3816 
L 2681 2381 
L 4116 3816 
L 4488 3438 
z
" transform="scale(0.015625)"/>
      <path id="DejaVuSans-5f" d="M 3263 -1063 
L 3263 -1509 
L -63 -1509 
L -63 -1063 
L 3263 -1063 
z
" transform="scale(0.015625)"/>
      <path id="DejaVuSans-3d" d="M 678 2906 
L 4684 2906 
L 4684 2381 
L 678 2381 
L 678 2906 
z
M 678 1631 
L 4684 1631 
L 4684 1100 
L 678 1100 
L 678 1631 
z
" transform="scale(0.015625)"/>
      <path id="DejaVuSans-77" d="M 269 3500 
L 844 3500 
L 1563 769 
L 2278 3500 
L 2956 3500 
L 3675 769 
L 4391 3500 
L 4966 3500 
L 4050 0 
L 3372 0 
L 2619 2869 
L 1863 0 
L 1184 0 
L 269 3500 
z
" transform="scale(0.015625)"/>
     </defs>
     <use xlink:href="#DejaVuSans-50"/>
     <use xlink:href="#DejaVuSans-72" transform="translate(58.552734 0)"/>
     <use xlink:href="#DejaVuSans-65" transform="translate(97.416016 0)"/>
     <use xlink:href="#DejaVuSans-64" transform="translate(158.939453 0)"/>
     <use xlink:href="#DejaVuSans-69" transform="translate(222.416016 0)"/>
     <use xlink:href="#DejaVuSans-63" transform="translate(250.199219 0)"/>
     <use xlink:href="#DejaVuSans-74" transform="translate(305.179688 0)"/>
     <use xlink:href="#DejaVuSans-65" transform="translate(344.388672 0)"/>
     <use xlink:href="#DejaVuSans-64" transform="translate(405.912109 0)"/>
     <use xlink:href="#DejaVuSans-20" transform="translate(469.388672 0)"/>
     <use xlink:href="#DejaVuSans-74" transform="translate(501.175781 0)"/>
     <use xlink:href="#DejaVuSans-68" transform="translate(540.384766 0)"/>
     <use xlink:href="#DejaVuSans-72" transform="translate(603.763672 0)"/>
     <use xlink:href="#DejaVuSans-6f" transform="translate(642.626953 0)"/>
     <use xlink:href="#DejaVuSans-75" transform="translate(703.808594 0)"/>
     <use xlink:href="#DejaVuSans-67" transform="translate(767.1875 0)"/>
     <use xlink:href="#DejaVuSans-68" transform="translate(830.664062 0)"/>
     <use xlink:href="#DejaVuSans-70" transform="translate(894.042969 0)"/>
     <use xlink:href="#DejaVuSans-75" transform="translate(957.519531 0)"/>
     <use xlink:href="#DejaVuSans-74" transform="translate(1020.898438 0)"/>
     <use xlink:href="#DejaVuSans-20" transform="translate(1060.107422 0)"/>
     <use xlink:href="#DejaVuSans-61" transform="translate(1091.894531 0)"/>
     <use xlink:href="#DejaVuSans-74" transform="translate(1153.173828 0)"/>
     <use xlink:href="#DejaVuSans-20" transform="translate(1192.382812 0)"/>
     <use xlink:href="#DejaVuSans-31" transform="translate(1224.169922 0)"/>
     <use xlink:href="#DejaVuSans-30" transform="translate(1287.792969 0)"/>
     <use xlink:href="#DejaVuSans-30" transform="translate(1351.416016 0)"/>
     <use xlink:href="#DejaVuSans-30" transform="translate(1415.039062 0)"/>
     <use xlink:href="#DejaVuSans-b2" transform="translate(1478.662109 0)"/>
     <use xlink:href="#DejaVuSans-20" transform="translate(1518.75 0)"/>
     <use xlink:href="#DejaVuSans-d7" transform="translate(1550.537109 0)"/>
     <use xlink:href="#DejaVuSans-20" transform="translate(1634.326172 0)"/>
     <use xlink:href="#DejaVuSans-6d" transform="translate(1666.113281 0)"/>
     <use xlink:href="#DejaVuSans-61" transform="translate(1763.525391 0)"/>
     <use xlink:href="#DejaVuSans-78" transform="translate(1824.804688 0)"/>
     <use xlink:href="#DejaVuSans-5f" transform="translate(1883.984375 0)"/>
     <use xlink:href="#DejaVuSans-69" transform="translate(1933.984375 0)"/>
     <use xlink:href="#DejaVuSans-74" transform="translate(1961.767578 0)"/>
     <use xlink:href="#DejaVuSans-65" transform="translate(2000.976562 0)"/>
     <use xlink:href="#DejaVuSans-72" transform="translate(2062.5 0)"/>
     <use xlink:href="#DejaVuSans-3d" transform="translate(2103.613281 0)"/>
     <use xlink:href="#DejaVuSans-32" transform="translate(2187.402344 0)"/>
     <use xlink:href="#DejaVuSans-35" transform="translate(2251.025391 0)"/>
     <use xlink:href="#DejaVuSans-36" transform="translate(2314.648438 0)"/>
     <use xlink:href="#DejaVuSans-2c" transform="translate(2378.271484 0)"/>
     <use xlink:href="#DejaVuSans-20" transform="translate(2410.058594 0)"/>
     <use xlink:href="#DejaVuSans-63" transform="translate(2441.845703 0)"/>
     <use xlink:href="#DejaVuSans-61" transform="translate(2496.826172 0)"/>
     <use xlink:href="#DejaVuSans-6e" transform="translate(2558.105469 0)"/>
     <use xlink:href="#DejaVuSans-6f" transform="translate(2621.484375 0)"/>
     <use xlink:href="#DejaVuSans-6e" transform="translate(2682.666016 0)"/>
     <use xlink:href="#DejaVuSans-69" transform="translate(2746.044922 0)"/>
     <use xlink:href="#DejaVuSans-63" transform="translate(2773.828125 0)"/>
     <use xlink:href="#DejaVuSans-61" transform="translate(2828.808594 0)"/>
     <use xlink:href="#DejaVuSans-6c" transform="translate(2890.087891 0)"/>
     <use xlink:href="#DejaVuSans-20" transform="translate(2917.871094 0)"/>
     <use xlink:href="#DejaVuSans-77" transform="translate(2949.658203 0)"/>
     <use xlink:href="#DejaVuSans-69" transform="translate(3031.445312 0)"/>
     <use xlink:href="#DejaVuSans-64" transform="translate(3059.228516 0)"/>
     <use xlink:href="#DejaVuSans-65" transform="translate(3122.705078 0)"/>
     <use xlink:href="#DejaVuSans-20" transform="translate(3184.228516 0)"/>
     <use xlink:href="#DejaVuSans-76" transform="translate(3216.015625 0)"/>
     <use xlink:href="#DejaVuSans-69" transform="translate(3275.195312 0)"/>
     <use xlink:href="#DejaVuSans-65" transform="translate(3302.978516 0)"/>
     <use xlink:href="#DejaVuSans-77" transform="translate(3364.501953 0)"/>
    </g>
   </g>
  </g>
 </g>
 <defs>
  <clipPath id="p977fc26b35">
   <rect x="55.344554" y="39.912" width="653.855446" height="316.544"/>
  </clipPath>
 </defs>
</svg>
